<svg xmlns="http://www.w3.org/2000/svg" viewBox="0 0 110.6 100.32"><defs><style>.cls-1{fill:#f37123;}</style></defs><g id="Layer_2" data-name="Layer 2"><g id="Layer_1-2" data-name="Layer 1"><g id="books"><path class="cls-1" d="M108.73,4.13l1.87-.22V0H18.07A18,18,0,0,0,9.92,34.12a17.93,17.93,0,0,0,0,32.08,18,18,0,0,0,8.15,34.12h90.5l2-.06V96.34l-1.87-.14a14,14,0,0,1,0-27.91l.77-.08,1.1,0v-4h-1.12l-.75-.06a14,14,0,0,1,0-27.9l.78-.09,1.09,0V32.18L108.73,32a14,14,0,0,1,0-27.9Zm-17,78.12a18.12,18.12,0,0,0,6.7,14H18.07a14,14,0,0,1,0-28H98.48A18.09,18.09,0,0,0,91.78,82.25Zm0-32.09a18.11,18.11,0,0,0,6.7,14H18.07a14,14,0,0,1,0-28h25V49.86A2.42,2.42,0,0,0,47,51.77l8.27-6.46,8.27,6.46h0a2.49,2.49,0,0,0,1.49.51,2.43,2.43,0,0,0,2.43-2.43V36.15H98.56A18.07,18.07,0,0,0,91.78,50.16Zm-44.6-30H63.42V46.49L55.3,40.15l-8.12,6.34Zm44.6-2a18.12,18.12,0,0,0,6.7,14h-31v-12h5.44V16H37.67v4.07h5.45v12h-25a14,14,0,0,1,0-28H98.48A18.09,18.09,0,0,0,91.78,18.08Z"/><rect class="cls-1" x="13.3" y="9.11" width="4.07" height="17.93"/><rect class="cls-1" x="13.3" y="41.2" width="4.07" height="17.93"/><rect class="cls-1" x="13.3" y="73.28" width="4.07" height="17.93"/></g></g></g></svg>