<svg xmlns="http://www.w3.org/2000/svg" viewBox="0 0 114.93 102.23"><defs><style>.cls-1,.cls-2{fill:none;stroke:#f37123;stroke-miterlimit:10;stroke-width:3.63px;}.cls-1{stroke-linecap:square;}</style></defs><g id="Layer_2" data-name="Layer 2"><g id="Layer_1-2" data-name="Layer 1"><g id="share"><path class="cls-1" d="M26.31,53.29A37.93,37.93,0,1,1,86.18,68.72"/><path class="cls-1" d="M45.6,59.19a69,69,0,0,1-2.66-19.46c0-20.94,8.41-37.92,18.8-37.92s18.8,17,18.8,37.92c0,10.23-2,19.51-5.27,26.33"/><line class="cls-2" x1="98.98" y1="46.86" x2="24.49" y2="46.86"/><line class="cls-2" x1="26.75" y1="25.08" x2="96.72" y2="25.08"/><line class="cls-2" x1="61.74" y1="2.57" x2="61.74" y2="62.24"/><path class="cls-1" d="M13.1,53.92H25.29a8.75,8.75,0,0,1,3.66.8l14.23,6.55a10.46,10.46,0,0,0,4.41,1h21.2a4.22,4.22,0,0,1,1.88.44,7.37,7.37,0,0,1,4.25,6.67c0,5.48-7.11,5.07-7.11,5.07H45.48S39,75.85,39,80.31"/><path class="cls-1" d="M13.1,87.22h1.59a35.68,35.68,0,0,1,12.07,2.09L51,98a23.43,23.43,0,0,0,9.34,2.43A14,14,0,0,0,68,98.18L107.3,72.31s9-5,4.57-10.75-14.72,1.52-14.72,1.52S80.42,73.61,71.58,74.22"/><polyline class="cls-1" points="1.81 47.66 13.1 47.66 13.1 94.85 1.81 94.85"/></g></g></g></svg>