<svg xmlns="http://www.w3.org/2000/svg" viewBox="0 0 117.96 102.39"><defs><style>.cls-1{fill:none;}.cls-2{fill:#f37123;}</style></defs><g id="Layer_2" data-name="Layer 2"><g id="Layer_1-2" data-name="Layer 1"><path class="cls-1" d="M87.56,76.89a2.2,2.2,0,1,0,2.2,2.2A2.2,2.2,0,0,0,87.56,76.89Z"/><path class="cls-1" d="M70.21,84.39a2.2,2.2,0,1,0-2.2-2.2A2.21,2.21,0,0,0,70.21,84.39Z"/><path class="cls-1" d="M110.22,19.5a2.2,2.2,0,1,0,2.2,2.2A2.21,2.21,0,0,0,110.22,19.5Z"/><path class="cls-1" d="M68,57.92a2.2,2.2,0,1,0-2.2-2.19A2.19,2.19,0,0,0,68,57.92Z"/><path class="cls-1" d="M90.27,16.73a2.2,2.2,0,1,0-2.2-2.2A2.21,2.21,0,0,0,90.27,16.73Z"/><path class="cls-1" d="M101.18,48.87a2.2,2.2,0,1,0,2.2,2.2A2.21,2.21,0,0,0,101.18,48.87Z"/><path class="cls-1" d="M111.85,85.66a2.2,2.2,0,1,0,2.19,2.2A2.2,2.2,0,0,0,111.85,85.66Z"/><path class="cls-1" d="M67.17,18.06a2.2,2.2,0,1,0-2.2-2.2A2.19,2.19,0,0,0,67.17,18.06Z"/><path class="cls-2" d="M57.36,2a2,2,0,0,0-2-2H47a3.52,3.52,0,0,0-3.48,3l-1.63,10a38.9,38.9,0,0,0-11.14,4.63l-8.2-5.9A3.52,3.52,0,0,0,18,12L12,18a3.54,3.54,0,0,0-.37,4.59l5.9,8.2a38.93,38.93,0,0,0-4.64,11.14L3,43.51A3.51,3.51,0,0,0,0,47V55.4a3.51,3.51,0,0,0,3,3.48l10,1.62a39,39,0,0,0,4.64,11.15l-5.92,8.22A3.5,3.5,0,0,0,12,84.42l5.95,6a3.49,3.49,0,0,0,2.49,1,3.56,3.56,0,0,0,2.06-.66l8.22-5.92a39,39,0,0,0,11.14,4.63l1.63,10a3.53,3.53,0,0,0,3.5,3h8.36a2,2,0,0,0,0-3.92h-8l-1.78-11A2,2,0,0,0,44,85.91a35.2,35.2,0,0,1-12.25-5.09,2,2,0,0,0-1.08-.33,1.94,1.94,0,0,0-1.14.37l-9,6.5L15,81.89l6.49-9a2,2,0,0,0,.05-2.22,35.14,35.14,0,0,1-5.1-12.25,2,2,0,0,0-1.6-1.54L3.92,55.06V47.32l11-1.78A2,2,0,0,0,16.47,44a35.14,35.14,0,0,1,5.1-12.25,2,2,0,0,0-.05-2.22L15,20.5,20.5,15l9,6.49a2,2,0,0,0,1.15.37,2,2,0,0,0,1.08-.32A35,35,0,0,1,44,16.48a2,2,0,0,0,1.54-1.61L47.32,3.92H55.4A2,2,0,0,0,57.36,2Z"/><path class="cls-2" d="M52.31,33.32a2,2,0,0,0,0-3.92,21.8,21.8,0,1,0,0,43.59,2,2,0,0,0,0-3.92,17.88,17.88,0,1,1,0-35.75Z"/><path class="cls-2" d="M67.17,9.75A6.12,6.12,0,1,0,70,21.27l4.35,4.35a2,2,0,0,0,1.39.57H90.27a2,2,0,0,0,2-2V20.32a6.12,6.12,0,1,0-4.82-11.2L78.86.57A1.94,1.94,0,0,0,77.48,0H63a2,2,0,0,0,0,3.92H76.67l8,8.05a6.09,6.09,0,0,0,3.59,8.35v2H76.57l-3.86-3.86a6.1,6.1,0,0,0-5.54-8.67Zm0,3.92A2.2,2.2,0,1,1,65,15.86,2.19,2.19,0,0,1,67.17,13.67Zm23.1-1.34a2.2,2.2,0,1,1-2.2,2.2A2.21,2.21,0,0,1,90.27,12.33Z"/><path class="cls-2" d="M63,70.57H77.22l5.2,5.2a6.11,6.11,0,0,0,3.18,9.11v4.59H80.44l-4.69-4.69A6.1,6.1,0,1,0,73,87.61l5.2,5.2a2,2,0,0,0,1.39.58h7.93a2,2,0,0,0,2-2V84.88a6.12,6.12,0,0,0-2-11.91,6,6,0,0,0-2,.36l-6.1-6.1A2,2,0,0,0,78,66.65H63a2,2,0,0,0,0,3.92ZM87.56,81.29a2.2,2.2,0,1,1,2.2-2.2A2.21,2.21,0,0,1,87.56,81.29ZM70.21,80a2.2,2.2,0,1,1-2.2,2.2A2.2,2.2,0,0,1,70.21,80Z"/><path class="cls-2" d="M63,43.68H90.55l5,5a6.15,6.15,0,1,0,2.62-2.93l-5.42-5.42a2,2,0,0,0-1.39-.57H63a2,2,0,0,0,0,3.92Zm38.17,9.59a2.2,2.2,0,1,1,2.2-2.2A2.21,2.21,0,0,1,101.18,53.27Z"/><path class="cls-2" d="M63,35.73H98a1.94,1.94,0,0,0,1.38-.57l8-8a6.18,6.18,0,1,0-2.74-2.8l-7.5,7.46H63a2,2,0,1,0,0,3.91ZM110.22,23.9a2.2,2.2,0,1,1,2.2-2.2A2.2,2.2,0,0,1,110.22,23.9Z"/><path class="cls-2" d="M111.85,81.74a6.1,6.1,0,0,0-5.55,8.68l-8,8H63a2,2,0,0,0,0,3.92H99.06a2,2,0,0,0,1.38-.58L109,93.26a6,6,0,0,0,2.86.72,6.12,6.12,0,0,0,0-12.24Zm0,8.32a2.2,2.2,0,1,1,2.19-2.2A2.2,2.2,0,0,1,111.85,90.06Z"/><path class="cls-2" d="M83.32,53.77H73.83a6.11,6.11,0,1,0,0,3.92h8.68L92.65,67.82A2,2,0,0,0,94,68.4a2,2,0,0,0,1.39-.58,2,2,0,0,0,0-2.77L84.71,54.34A2,2,0,0,0,83.32,53.77ZM68,53.53a2.2,2.2,0,1,1-2.2,2.2A2.19,2.19,0,0,1,68,53.53Z"/></g></g></svg>