<svg width="160" height="22" viewBox="0 0 160 22" fill="none" xmlns="http://www.w3.org/2000/svg">
<g clip-path="url(#clip0)">
<path d="M37.8876 7.68962C37.526 7.40696 37.133 7.16707 36.7163 6.97472C36.2783 6.77821 35.802 6.68172 35.322 6.69224C34.8802 6.6783 34.4437 6.79082 34.0636 7.01657C33.6774 7.26976 33.3318 7.58019 33.0388 7.93723L29.905 11.5083C29.5268 11.929 29.2617 12.439 29.1346 12.9904V2.37489C29.151 1.96193 29.0698 1.55093 28.8976 1.17524C28.7528 0.884554 28.5385 0.634176 28.2736 0.446382C28.0145 0.270521 27.7211 0.151659 27.4126 0.097646C27.1003 0.0357768 26.7829 0.00308755 26.4645 0C26.1676 0.000105169 25.8709 0.0152364 25.5756 0.0453357C25.4145 0.054726 25.2546 0.0792453 25.098 0.11857V21.0427H29.1346V13.8971C29.2124 14.4425 29.4378 14.9563 29.7865 15.3827L33.0806 19.8047C33.4483 20.3063 33.9251 20.7177 34.4749 21.0078C35.0343 21.2548 35.6416 21.374 36.2527 21.3566C36.6969 21.3586 37.1385 21.2879 37.5599 21.1473C37.9319 21.034 38.2845 20.8646 38.6057 20.6452L33.0527 13.2729L37.8876 7.68962Z" fill="#27272F"/>
<path d="M50.1612 8.50915C49.6499 7.90344 49.0041 7.42574 48.2754 7.11421C47.3838 6.74329 46.424 6.56503 45.4588 6.59111C44.6108 6.59063 43.7686 6.73086 42.9664 7.0061C42.1554 7.28406 41.4119 7.72963 40.7843 8.31386C40.1158 8.94275 39.5893 9.70727 39.2401 10.5562C38.8309 11.58 38.6341 12.6763 38.6614 13.7786C38.6189 15.0711 38.8407 16.3586 39.3133 17.5623C39.6901 18.4812 40.2748 19.3 41.0213 19.9547C41.7196 20.5457 42.5415 20.9723 43.4266 21.2031C44.3224 21.436 45.2443 21.5532 46.1699 21.5519C47.0768 21.567 47.9811 21.4496 48.854 21.2031C49.4862 21.0379 50.0844 20.7629 50.6213 20.3906C50.8326 20.2679 51.0107 20.0954 51.1401 19.8882C51.2695 19.6809 51.3463 19.4451 51.3638 19.2014C51.3291 18.7944 51.1963 18.402 50.9769 18.0575C50.7599 17.6581 50.5128 17.2757 50.2379 16.9137L49.6418 17.4368C49.4033 17.6373 49.1438 17.8115 48.868 17.9564C48.5471 18.124 48.2094 18.2573 47.8606 18.354C47.4349 18.4708 46.9947 18.526 46.5534 18.5179C45.2706 18.5179 44.3294 18.1691 43.7368 17.4368C43.1224 16.659 42.7686 15.7071 42.7259 14.7167H51.4405C51.4648 14.5853 51.48 14.4525 51.4858 14.3191C51.4858 14.1494 51.4963 13.975 51.5172 13.796C51.5172 13.6181 51.5172 13.4473 51.5172 13.2938V12.9032C51.5215 12.1 51.4112 11.3003 51.1895 10.5283C50.9923 9.79049 50.6419 9.10248 50.1612 8.50915ZM42.698 12.5022C42.6424 11.6573 42.8896 10.8203 43.3952 10.1412C43.6362 9.86073 43.9378 9.63868 44.2772 9.49187C44.6166 9.34507 44.9849 9.27734 45.3542 9.29381C46.3059 9.29381 46.9612 9.59024 47.3272 10.1866C47.7223 10.8922 47.913 11.6941 47.878 12.5022H42.698Z" fill="#27272F"/>
<path d="M66.5586 9.62161C66.3913 8.7604 65.9305 7.98393 65.2549 7.42458C64.581 6.87125 63.5422 6.59343 62.1386 6.5911C61.1645 6.54486 60.1946 6.74516 59.3185 7.17349C58.7201 7.47845 58.1936 7.90765 57.7743 8.43243C57.7347 8.17624 57.6342 7.93329 57.4814 7.72395C57.3285 7.51461 57.1277 7.34498 56.8959 7.22929C56.3807 6.9904 55.8182 6.87118 55.2505 6.88055C55.0344 6.88055 54.8462 6.88055 54.6858 6.88055C54.5255 6.88055 54.393 6.90496 54.2745 6.9224L53.9259 6.98168V21.0532H57.9834V11.4316C57.9968 11.1877 58.0771 10.9523 58.2154 10.7511C58.3538 10.5499 58.5449 10.3908 58.7677 10.2912C59.3422 9.97045 59.9924 9.81025 60.6501 9.82737C61.0641 9.80622 61.4772 9.88267 61.8562 10.0506C62.1265 10.1841 62.3447 10.4037 62.4767 10.6748C62.6154 10.9791 62.6958 11.3068 62.7137 11.6408C62.7451 12.0139 62.759 12.422 62.759 12.8579V21.0532H66.7956V12.6835C66.7956 12.1674 66.7956 11.6373 66.7538 11.1072C66.7285 10.6076 66.6632 10.1108 66.5586 9.62161Z" fill="#27272F"/>
<path d="M77.8946 17.3392C77.8353 17.4019 77.7377 17.4891 77.5983 17.6077C77.4403 17.7434 77.2672 17.8605 77.0824 17.9564C76.8574 18.072 76.6244 18.171 76.3852 18.2528C76.134 18.3448 75.8683 18.3908 75.6009 18.3888C74.4715 18.3888 73.9102 17.6914 73.9102 16.2964V9.94596H78.0828V6.91893H73.9207V4.82651C73.9377 4.41201 73.8552 3.99946 73.6802 3.62337C73.5366 3.33387 73.3234 3.08461 73.0597 2.898C72.8021 2.71929 72.508 2.60016 72.1987 2.54927C71.8852 2.48796 71.5665 2.45759 71.2471 2.4586C71.0902 2.4586 70.9298 2.4586 70.773 2.4586C70.6161 2.4586 70.4662 2.4865 70.3268 2.50393L69.8841 2.56322V16.3627C69.8841 16.7986 69.9015 17.2345 69.9434 17.667C69.9802 18.0927 70.0704 18.5122 70.2118 18.9154C70.4756 19.6737 70.9737 20.3283 71.634 20.7847C72.3033 21.2624 73.2654 21.4821 74.5133 21.4821C75.0999 21.4859 75.6849 21.4203 76.2562 21.2868C76.7324 21.1807 77.192 21.0106 77.6227 20.7812C77.9551 20.6051 78.2518 20.3686 78.4976 20.0837C78.6896 19.8762 78.7998 19.6061 78.8078 19.3235C78.7982 19.0128 78.7171 18.7085 78.5708 18.4342C78.3685 18.0554 78.1427 17.6896 77.8946 17.3392Z" fill="#27272F"/>
<path d="M83.7403 7.32345C83.4802 7.15195 83.1888 7.03345 82.8828 6.97471C82.569 6.91632 82.2504 6.88713 81.9312 6.88753C81.6343 6.88655 81.3377 6.90052 81.0423 6.92938C80.8813 6.94074 80.7216 6.96524 80.5647 7.00261V18.884C80.5647 19.8745 80.8075 20.5324 81.2932 20.8579C81.8582 21.2075 82.5154 21.3789 83.1791 21.3496C83.4928 21.3496 83.7926 21.3496 84.068 21.3217C84.2504 21.3179 84.4313 21.2874 84.6048 21.231V9.23452C84.6213 8.81594 84.5364 8.39958 84.3573 8.02092C84.2161 7.73847 84.0034 7.49799 83.7403 7.32345Z" fill="#27272F"/>
<path d="M95.763 13.2729L100.601 7.69311C100.238 7.40992 99.8441 7.16891 99.4266 6.97472C98.9885 6.77821 98.5122 6.68172 98.0322 6.69224C97.5905 6.6783 97.1539 6.79082 96.7739 7.01657C96.3883 7.27069 96.0429 7.581 95.749 7.93723L92.6118 11.5327C92.2335 11.9534 91.9684 12.4634 91.8414 13.0148V2.37489C91.8577 1.96193 91.7765 1.55093 91.6044 1.17524C91.4585 0.885266 91.2444 0.635126 90.9804 0.446382C90.7213 0.270521 90.4278 0.151659 90.1194 0.097646C89.807 0.0359748 89.4896 0.0032874 89.1712 0C88.8744 0.000199842 88.5777 0.0153308 88.2823 0.0453357C88.1224 0.0552779 87.9637 0.0797909 87.8083 0.11857V21.0427H91.8449V13.8971C91.9223 14.4433 92.1491 14.9574 92.5002 15.3827L95.7909 19.8047C96.1386 20.3179 96.6149 20.7307 97.1722 21.0018C97.7295 21.273 98.3483 21.3929 98.9665 21.3496C99.4095 21.3516 99.8499 21.2809 100.27 21.1404C100.642 21.0265 100.995 20.8572 101.316 20.6382L95.763 13.2729Z" fill="#27272F"/>
<path d="M82.468 0.090676C82.1832 0.0839105 81.8999 0.134098 81.6347 0.238296C81.3695 0.342493 81.1278 0.498604 80.9237 0.697476C80.7178 0.900114 80.556 1.14324 80.4486 1.41153C80.3412 1.67983 80.2905 1.96747 80.2998 2.25633C80.2893 2.54326 80.3394 2.82919 80.4469 3.09541C80.5544 3.36163 80.7169 3.60214 80.9237 3.80123C81.1291 3.99743 81.3713 4.15087 81.6364 4.25264C81.9015 4.35442 82.1842 4.40249 82.468 4.39408C83.0396 4.40744 83.5934 4.19436 84.0087 3.80123C84.2183 3.60376 84.3833 3.36378 84.4928 3.09735C84.6022 2.83092 84.6534 2.54418 84.6431 2.25633C84.651 1.96671 84.5987 1.67861 84.4895 1.41027C84.3803 1.14193 84.2166 0.899211 84.0087 0.697476C83.5956 0.299255 83.0416 0.0810581 82.468 0.090676Z" fill="#27272F"/>
<path d="M116.274 21.2903C115.786 21.4019 115.284 21.4419 114.785 21.4089C113.079 21.4089 112.227 20.5859 112.227 18.9398V0.11857C112.404 0.0818616 112.583 0.0573922 112.763 0.0453357C113.04 0.015609 113.318 0.00047621 113.597 0C115.381 0 116.274 0.784656 116.274 2.35397V21.2903Z" fill="#27272F"/>
<path d="M131.001 17.6565C131.001 19.2049 131.231 20.3487 131.698 21.0811C131.071 21.3257 130.406 21.4568 129.732 21.4682C129.179 21.4989 128.63 21.3642 128.153 21.0811C127.754 20.7884 127.487 20.3495 127.411 19.8605C126.897 20.4106 126.259 20.8292 125.549 21.0811C124.753 21.3693 123.911 21.5111 123.064 21.4996C121.862 21.5512 120.686 21.1407 119.777 20.3522C118.938 19.5897 118.519 18.5132 118.519 17.1229C118.519 14.0448 120.949 12.3766 125.811 12.1186C126.128 12.1186 126.574 12.0907 127.149 12.0907V11.5536C127.149 10.8166 126.951 10.2854 126.553 9.9599C126.156 9.63208 125.508 9.46818 124.559 9.46818C123.935 9.4703 123.314 9.5607 122.715 9.73671C121.883 10.0139 121.085 10.3835 120.335 10.8387C120.055 10.5182 119.828 10.1557 119.662 9.7646C119.515 9.4652 119.424 9.14132 119.393 8.80907C119.393 8.43243 119.686 8.06975 120.272 7.7245C120.955 7.33914 121.693 7.06265 122.461 6.90497C123.35 6.70486 124.258 6.60543 125.169 6.60855C127.233 6.60855 128.72 7.03517 129.631 7.88841C130.542 8.74165 130.999 10.1366 131.001 12.0732V17.6565ZM127.191 14.204H126.776C126.637 14.2046 126.497 14.2139 126.358 14.2319C124.929 14.333 123.897 14.5806 123.263 15.0235C122.961 15.2141 122.714 15.4806 122.547 15.7963C122.38 16.112 122.299 16.466 122.311 16.823C122.294 17.0927 122.333 17.3629 122.425 17.6168C122.518 17.8707 122.661 18.1027 122.848 18.2982C123.058 18.4853 123.303 18.6289 123.568 18.7205C123.834 18.8121 124.115 18.8499 124.396 18.8317C125.07 18.8379 125.734 18.6581 126.313 18.3121C126.898 17.9634 127.191 17.6146 127.191 17.2659V14.204Z" fill="#27272F"/>
<path d="M137.837 7.91979C138.708 7.05725 139.889 6.62598 141.379 6.62598C143.261 6.62598 144.715 7.23046 145.739 8.43941C146.764 9.64836 147.274 11.406 147.27 13.7123C147.27 16.2418 146.749 18.1808 145.708 19.5292C144.667 20.8777 143.204 21.5472 141.319 21.5379C140.522 21.5493 139.731 21.3925 138.998 21.0776C138.402 20.8458 137.878 20.4608 137.478 19.9616C137.478 20.7358 137.121 21.1229 136.408 21.1229H133.786V0.11857C133.958 0.0790153 134.133 0.0545112 134.309 0.0453357C134.591 0.0158616 134.873 0.000730122 135.156 0C136.941 0 137.835 0.793955 137.837 2.38187V7.91979ZM143.045 13.7576C143.045 10.898 142.053 9.46818 140.068 9.46818C139.489 9.43347 138.913 9.57447 138.416 9.87271C138.229 9.99739 138.078 10.1682 137.976 10.3686C137.875 10.569 137.827 10.7922 137.837 11.0166V17.4786C138.135 17.7727 138.491 18.0008 138.883 18.1482C139.304 18.3176 139.754 18.404 140.207 18.4028C140.631 18.4258 141.054 18.3324 141.428 18.1326C141.803 17.9328 142.116 17.6343 142.334 17.2694C142.808 16.5161 143.045 15.3455 143.045 13.7576Z" fill="#27272F"/>
<path d="M159.617 8.66608C159.617 9.18221 159.32 9.91456 158.724 10.8701C158.148 10.424 157.506 10.071 156.821 9.82389C156.155 9.55541 155.447 9.41007 154.729 9.39494C153.398 9.39494 152.736 9.8204 152.736 10.6748C152.736 11.3479 153.457 11.8466 154.907 12.1639C155.897 12.3268 156.856 12.6433 157.748 13.102C158.383 13.4342 158.919 13.9272 159.303 14.5318C159.668 15.1672 159.849 15.8917 159.826 16.6242C159.851 17.3108 159.717 17.9939 159.432 18.6192C159.148 19.2446 158.722 19.795 158.187 20.2267C157.097 21.1194 155.65 21.5658 153.844 21.5658C152.571 21.605 151.304 21.3818 150.121 20.9102C149.192 20.5126 148.727 20.0267 148.727 19.4525C148.737 19.0845 148.839 18.7249 149.023 18.4063C149.222 18.0366 149.452 17.6565 149.72 17.2589C150.261 17.709 150.876 18.0628 151.536 18.3051C152.207 18.5816 152.924 18.7284 153.649 18.7376C155.155 18.7376 155.911 18.2214 155.911 17.1892C155.921 16.9673 155.876 16.7465 155.78 16.5463C155.684 16.3461 155.54 16.1728 155.36 16.0418C155.012 15.7733 154.29 15.5327 153.217 15.313C151.669 14.9945 150.538 14.483 149.825 13.7786C149.464 13.4124 149.183 12.9756 148.998 12.4955C148.814 12.0154 148.731 11.5024 148.755 10.9887C148.743 10.3656 148.886 9.74933 149.172 9.19537C149.457 8.64142 149.875 8.16712 150.39 7.81517C151.593 6.9843 153.034 6.56698 154.496 6.62598C155.78 6.5855 157.058 6.80249 158.257 7.26417C159.126 7.62453 159.579 8.09183 159.617 8.66608Z" fill="#27272F"/>
<path d="M19.478 9.3571C19.0515 8.9778 18.5302 8.74074 17.9615 8.74074C17.3454 8.74074 16.8241 8.93039 16.4449 9.3571C16.0184 9.78381 15.8288 10.2579 15.8288 10.9217C15.8288 11.5381 16.0184 12.0596 16.4449 12.4389C16.8715 12.8182 17.3454 13.0079 17.9615 13.0079C18.5302 13.0079 19.0515 12.8182 19.478 12.4389C19.9045 12.0596 20.0941 11.5381 20.0941 10.9217C20.0941 10.2579 19.9045 9.7364 19.478 9.3571Z" fill="#E05420"/>
<path d="M106.649 9.3571C106.223 8.9778 105.701 8.74074 105.133 8.74074C104.517 8.74074 103.995 8.93039 103.616 9.3571C103.19 9.78381 103 10.2579 103 10.9217C103 11.5381 103.19 12.0596 103.616 12.4389C104.043 12.8182 104.517 13.0079 105.133 13.0079C105.701 13.0079 106.223 12.8182 106.649 12.4389C107.076 12.0596 107.265 11.5381 107.265 10.9217C107.265 10.2579 107.076 9.7364 106.649 9.3571Z" fill="#E05420"/>
<path d="M11.8005 10.8743L19.1937 1.01251C18.9093 0.822864 18.5776 0.633214 18.151 0.538389C17.7245 0.396152 17.298 0.34874 16.8715 0.34874C16.1606 0.34874 15.5919 0.443564 15.118 0.680626C14.644 0.917688 14.1701 1.29699 13.7436 1.86594L7.01398 10.8743L13.7436 19.9301C14.2175 20.499 14.644 20.8783 15.118 21.1154C15.5919 21.3524 16.1606 21.4473 16.8715 21.4473C17.3454 21.4473 17.7719 21.3998 18.151 21.2576C18.5776 21.1154 18.9093 20.9731 19.1937 20.7835L11.8005 10.8743Z" fill="#E05420"/>
<path d="M12.1797 1.01251C11.8953 0.822864 11.5636 0.633214 11.1371 0.538389C10.7105 0.396152 10.284 0.34874 9.85748 0.34874C9.14661 0.34874 8.57791 0.443564 8.10399 0.680626C7.63007 0.917688 7.15615 1.29699 6.72963 1.86594L0 10.8743L6.72963 19.9301C7.20354 20.499 7.63007 20.8783 8.10399 21.1154C8.57791 21.3524 9.14661 21.4473 9.85748 21.4473C10.3314 21.4473 10.7579 21.3998 11.1371 21.2576C11.5636 21.1154 11.8953 20.9731 12.1797 20.7835L4.78657 10.8743L12.1797 1.01251Z" fill="#E05420"/>
</g>
<defs>
<clipPath id="clip0">
<rect width="160" height="21.6216" fill="white"/>
</clipPath>
</defs>
</svg>
