<svg width="135" height="22" viewBox="0 0 135 22" fill="none" xmlns="http://www.w3.org/2000/svg">
<path d="M12.8876 7.68962C12.526 7.40696 12.133 7.16707 11.7163 6.97472C11.2783 6.77821 10.802 6.68172 10.322 6.69224C9.8802 6.6783 9.4437 6.79082 9.0636 7.01657C8.6774 7.26976 8.3318 7.58019 8.0388 7.93723L4.905 11.5083C4.5268 11.929 4.2617 12.439 4.1346 12.9904V2.37489C4.151 1.96193 4.0698 1.55093 3.8976 1.17524C3.7528 0.884554 3.5385 0.634176 3.2736 0.446382C3.0145 0.270521 2.7211 0.151659 2.4126 0.097646C2.1003 0.0357768 1.7829 0.00308755 1.4645 0C1.1676 0.000105169 0.8709 0.0152364 0.5756 0.0453357C0.4145 0.054726 0.2546 0.0792453 0.0979996 0.11857V21.0427H4.1346V13.8971C4.2124 14.4425 4.4378 14.9563 4.7865 15.3827L8.0806 19.8047C8.4483 20.3063 8.9251 20.7177 9.4749 21.0078C10.0343 21.2548 10.6416 21.374 11.2527 21.3566C11.6969 21.3586 12.1385 21.2879 12.5599 21.1473C12.9319 21.034 13.2845 20.8646 13.6057 20.6452L8.0527 13.2729L12.8876 7.68962Z" fill="#27272F"/>
<path d="M25.1612 8.50916C24.6499 7.90345 24.0041 7.42575 23.2754 7.11422C22.3838 6.7433 21.424 6.56504 20.4588 6.59112C19.6108 6.59064 18.7686 6.73087 17.9664 7.00611C17.1554 7.28407 16.4119 7.72964 15.7843 8.31387C15.1158 8.94276 14.5893 9.70728 14.2401 10.5562C13.8309 11.58 13.6341 12.6763 13.6614 13.7786C13.6189 15.0711 13.8407 16.3586 14.3133 17.5623C14.6901 18.4812 15.2748 19.3 16.0213 19.9547C16.7196 20.5457 17.5415 20.9723 18.4266 21.2031C19.3224 21.436 20.2443 21.5532 21.1699 21.5519C22.0768 21.567 22.9811 21.4496 23.854 21.2031C24.4862 21.0379 25.0844 20.7629 25.6213 20.3906C25.8326 20.2679 26.0107 20.0954 26.1401 19.8882C26.2695 19.6809 26.3463 19.4451 26.3638 19.2014C26.3291 18.7944 26.1963 18.402 25.9769 18.0575C25.7599 17.6581 25.5128 17.2757 25.2379 16.9137L24.6418 17.4368C24.4033 17.6373 24.1438 17.8115 23.868 17.9564C23.5471 18.124 23.2094 18.2573 22.8606 18.354C22.4349 18.4708 21.9947 18.526 21.5534 18.5179C20.2706 18.5179 19.3294 18.1691 18.7368 17.4368C18.1224 16.659 17.7686 15.7071 17.7259 14.7167H26.4405C26.4648 14.5853 26.48 14.4525 26.4858 14.3191C26.4858 14.1494 26.4963 13.975 26.5172 13.796C26.5172 13.6181 26.5172 13.4473 26.5172 13.2938V12.9032C26.5215 12.1 26.4112 11.3003 26.1895 10.5283C25.9923 9.7905 25.6419 9.10249 25.1612 8.50916ZM17.698 12.5022C17.6424 11.6573 17.8896 10.8203 18.3952 10.1412C18.6362 9.86074 18.9378 9.63869 19.2772 9.49188C19.6166 9.34508 19.9849 9.27735 20.3542 9.29382C21.3059 9.29382 21.9612 9.59025 22.3272 10.1866C22.7223 10.8922 22.913 11.6941 22.878 12.5022H17.698Z" fill="#27272F"/>
<path d="M41.5586 9.62162C41.3913 8.76041 40.9305 7.98394 40.2549 7.42459C39.581 6.87126 38.5422 6.59344 37.1386 6.59111C36.1645 6.54487 35.1946 6.74517 34.3185 7.1735C33.7201 7.47846 33.1936 7.90766 32.7743 8.43244C32.7347 8.17625 32.6342 7.9333 32.4814 7.72396C32.3285 7.51462 32.1277 7.34499 31.8959 7.2293C31.3807 6.99041 30.8182 6.87119 30.2505 6.88056C30.0344 6.88056 29.8462 6.88056 29.6858 6.88056C29.5255 6.88056 29.393 6.90497 29.2745 6.92241L28.9259 6.98169V21.0532H32.9834V11.4316C32.9968 11.1877 33.0771 10.9523 33.2154 10.7511C33.3538 10.5499 33.5449 10.3908 33.7677 10.2912C34.3422 9.97046 34.9924 9.81026 35.6501 9.82738C36.0641 9.80623 36.4772 9.88268 36.8562 10.0506C37.1265 10.1841 37.3447 10.4037 37.4767 10.6748C37.6154 10.9791 37.6958 11.3068 37.7137 11.6408C37.7451 12.0139 37.759 12.422 37.759 12.8579V21.0532H41.7956V12.6835C41.7956 12.1674 41.7956 11.6373 41.7538 11.1072C41.7285 10.6076 41.6632 10.1108 41.5586 9.62162Z" fill="#27272F"/>
<path d="M52.8946 17.3392C52.8353 17.4019 52.7377 17.4891 52.5983 17.6077C52.4403 17.7434 52.2672 17.8605 52.0824 17.9564C51.8574 18.072 51.6244 18.171 51.3852 18.2528C51.134 18.3448 50.8683 18.3908 50.6009 18.3888C49.4715 18.3888 48.9102 17.6914 48.9102 16.2964V9.946H53.0828V6.91897H48.9207V4.82655C48.9377 4.41205 48.8552 3.9995 48.6802 3.62341C48.5366 3.33391 48.3234 3.08465 48.0597 2.89804C47.8021 2.71933 47.508 2.6002 47.1987 2.54931C46.8852 2.488 46.5665 2.45763 46.2471 2.45864C46.0902 2.45864 45.9298 2.45864 45.773 2.45864C45.6161 2.45864 45.4662 2.48654 45.3268 2.50397L44.8841 2.56326V16.3627C44.8841 16.7986 44.9015 17.2345 44.9434 17.667C44.9802 18.0927 45.0704 18.5122 45.2118 18.9154C45.4756 19.6737 45.9737 20.3283 46.634 20.7847C47.3033 21.2624 48.2654 21.4821 49.5133 21.4821C50.0999 21.4859 50.6849 21.4203 51.2562 21.2868C51.7324 21.1807 52.192 21.0106 52.6227 20.7812C52.9551 20.6051 53.2518 20.3686 53.4976 20.0837C53.6896 19.8762 53.7998 19.6061 53.8078 19.3235C53.7982 19.0128 53.7171 18.7085 53.5708 18.4342C53.3685 18.0554 53.1427 17.6896 52.8946 17.3392Z" fill="#27272F"/>
<path d="M58.7403 7.32342C58.4802 7.15192 58.1888 7.03342 57.8828 6.97468C57.569 6.91629 57.2504 6.8871 56.9312 6.8875C56.6343 6.88652 56.3377 6.90049 56.0423 6.92935C55.8813 6.94071 55.7216 6.96521 55.5647 7.00258V18.884C55.5647 19.8745 55.8075 20.5324 56.2932 20.8579C56.8582 21.2075 57.5154 21.3789 58.1791 21.3496C58.4928 21.3496 58.7926 21.3496 59.068 21.3217C59.2504 21.3179 59.4313 21.2874 59.6048 21.231V9.23449C59.6213 8.81591 59.5364 8.39955 59.3573 8.02089C59.2161 7.73844 59.0034 7.49796 58.7403 7.32342Z" fill="#27272F"/>
<path d="M70.763 13.2729L75.601 7.69311C75.238 7.40992 74.8441 7.16891 74.4266 6.97472C73.9885 6.77821 73.5122 6.68172 73.0322 6.69224C72.5905 6.6783 72.1539 6.79082 71.7739 7.01657C71.3883 7.27069 71.0429 7.581 70.749 7.93723L67.6118 11.5327C67.2335 11.9534 66.9684 12.4634 66.8414 13.0148V2.37489C66.8577 1.96193 66.7765 1.55093 66.6044 1.17524C66.4585 0.885266 66.2444 0.635126 65.9804 0.446382C65.7213 0.270521 65.4278 0.151659 65.1194 0.097646C64.807 0.0359748 64.4896 0.0032874 64.1712 0C63.8744 0.000199842 63.5777 0.0153308 63.2823 0.0453357C63.1224 0.0552779 62.9637 0.0797909 62.8083 0.11857V21.0427H66.8449V13.8971C66.9223 14.4433 67.1491 14.9574 67.5002 15.3827L70.7909 19.8047C71.1386 20.3179 71.6149 20.7307 72.1722 21.0018C72.7295 21.273 73.3483 21.3929 73.9665 21.3496C74.4095 21.3516 74.8499 21.2809 75.27 21.1404C75.642 21.0265 75.995 20.8572 76.316 20.6382L70.763 13.2729Z" fill="#27272F"/>
<path d="M57.468 0.0906913C57.1832 0.0839258 56.8999 0.134113 56.6347 0.238311C56.3695 0.342508 56.1278 0.498619 55.9237 0.697491C55.7178 0.900129 55.556 1.14326 55.4486 1.41155C55.3412 1.67985 55.2905 1.96749 55.2998 2.25635C55.2893 2.54328 55.3394 2.82921 55.4469 3.09543C55.5544 3.36165 55.7169 3.60216 55.9237 3.80125C56.1291 3.99745 56.3713 4.15089 56.6364 4.25266C56.9015 4.35444 57.1842 4.40251 57.468 4.3941C58.0396 4.40746 58.5934 4.19438 59.0087 3.80125C59.2183 3.60378 59.3833 3.3638 59.4928 3.09737C59.6022 2.83094 59.6534 2.5442 59.6431 2.25635C59.651 1.96673 59.5987 1.67863 59.4895 1.41029C59.3803 1.14195 59.2166 0.899226 59.0087 0.697491C58.5956 0.29927 58.0416 0.0810734 57.468 0.0906913Z" fill="#27272F"/>
<path d="M91.274 21.2903C90.786 21.4019 90.284 21.4419 89.785 21.4089C88.079 21.4089 87.227 20.5859 87.227 18.9398V0.11857C87.404 0.0818616 87.583 0.0573922 87.763 0.0453357C88.04 0.015609 88.318 0.00047621 88.597 0C90.381 0 91.274 0.784656 91.274 2.35397V21.2903Z" fill="#27272F"/>
<path d="M106.001 17.6565C106.001 19.2049 106.231 20.3487 106.698 21.0811C106.071 21.3257 105.406 21.4568 104.732 21.4682C104.179 21.4989 103.63 21.3642 103.153 21.0811C102.754 20.7884 102.487 20.3495 102.411 19.8605C101.897 20.4106 101.259 20.8292 100.549 21.0811C99.753 21.3693 98.911 21.5111 98.064 21.4996C96.862 21.5512 95.686 21.1407 94.777 20.3522C93.938 19.5897 93.519 18.5132 93.519 17.1229C93.519 14.0448 95.949 12.3766 100.811 12.1186C101.128 12.1186 101.574 12.0907 102.149 12.0907V11.5536C102.149 10.8166 101.951 10.2854 101.553 9.95994C101.156 9.63212 100.508 9.46822 99.559 9.46822C98.935 9.47034 98.314 9.56074 97.715 9.73675C96.883 10.0139 96.085 10.3835 95.335 10.8387C95.055 10.5182 94.828 10.1557 94.662 9.76464C94.515 9.46524 94.424 9.14136 94.393 8.80911C94.393 8.43247 94.686 8.06979 95.272 7.72454C95.955 7.33918 96.693 7.06269 97.461 6.90501C98.35 6.7049 99.258 6.60547 100.169 6.60859C102.233 6.60859 103.72 7.03521 104.631 7.88845C105.542 8.74169 105.999 10.1366 106.001 12.0732V17.6565ZM102.191 14.204H101.776C101.637 14.2046 101.497 14.2139 101.358 14.2319C99.929 14.333 98.897 14.5806 98.263 15.0235C97.961 15.2141 97.714 15.4806 97.547 15.7963C97.38 16.112 97.299 16.466 97.311 16.823C97.294 17.0927 97.333 17.3629 97.425 17.6168C97.518 17.8707 97.661 18.1027 97.848 18.2982C98.058 18.4853 98.303 18.6289 98.568 18.7205C98.834 18.8121 99.115 18.8499 99.396 18.8317C100.07 18.8379 100.734 18.6581 101.313 18.3121C101.898 17.9634 102.191 17.6146 102.191 17.2659V14.204Z" fill="#27272F"/>
<path d="M112.837 7.91979C113.708 7.05725 114.889 6.62598 116.379 6.62598C118.261 6.62598 119.715 7.23046 120.739 8.43941C121.764 9.64836 122.274 11.406 122.27 13.7123C122.27 16.2418 121.749 18.1808 120.708 19.5292C119.667 20.8777 118.204 21.5472 116.319 21.5379C115.522 21.5493 114.731 21.3925 113.998 21.0776C113.402 20.8458 112.878 20.4608 112.478 19.9616C112.478 20.7358 112.121 21.1229 111.408 21.1229H108.786V0.11857C108.958 0.0790153 109.133 0.0545112 109.309 0.0453357C109.591 0.0158616 109.873 0.000730122 110.156 0C111.941 0 112.835 0.793955 112.837 2.38187V7.91979ZM118.045 13.7576C118.045 10.898 117.053 9.46818 115.068 9.46818C114.489 9.43347 113.913 9.57447 113.416 9.87271C113.229 9.99739 113.078 10.1682 112.976 10.3686C112.875 10.569 112.827 10.7922 112.837 11.0166V17.4786C113.135 17.7727 113.491 18.0008 113.883 18.1482C114.304 18.3176 114.754 18.404 115.207 18.4028C115.631 18.4258 116.054 18.3324 116.428 18.1326C116.803 17.9328 117.116 17.6343 117.334 17.2694C117.808 16.5161 118.045 15.3455 118.045 13.7576Z" fill="#27272F"/>
<path d="M134.617 8.66608C134.617 9.18221 134.32 9.91456 133.724 10.8701C133.148 10.424 132.506 10.071 131.821 9.82389C131.155 9.55541 130.447 9.41007 129.729 9.39494C128.398 9.39494 127.736 9.8204 127.736 10.6748C127.736 11.3479 128.457 11.8466 129.907 12.1639C130.897 12.3268 131.856 12.6433 132.748 13.102C133.383 13.4342 133.919 13.9272 134.303 14.5318C134.668 15.1672 134.849 15.8917 134.826 16.6242C134.851 17.3108 134.717 17.9939 134.432 18.6192C134.148 19.2446 133.722 19.795 133.187 20.2267C132.097 21.1194 130.65 21.5658 128.844 21.5658C127.571 21.605 126.304 21.3818 125.121 20.9102C124.192 20.5126 123.727 20.0267 123.727 19.4525C123.737 19.0845 123.839 18.7249 124.023 18.4063C124.222 18.0366 124.452 17.6565 124.72 17.2589C125.261 17.709 125.876 18.0628 126.536 18.3051C127.207 18.5816 127.924 18.7284 128.649 18.7376C130.155 18.7376 130.911 18.2214 130.911 17.1892C130.921 16.9673 130.876 16.7465 130.78 16.5463C130.684 16.3461 130.54 16.1728 130.36 16.0418C130.012 15.7733 129.29 15.5327 128.217 15.313C126.669 14.9945 125.538 14.483 124.825 13.7786C124.464 13.4124 124.183 12.9756 123.998 12.4955C123.814 12.0154 123.731 11.5024 123.755 10.9887C123.743 10.3656 123.886 9.74933 124.172 9.19537C124.457 8.64142 124.875 8.16712 125.39 7.81517C126.593 6.9843 128.034 6.56698 129.496 6.62598C130.78 6.5855 132.058 6.80249 133.257 7.26417C134.126 7.62453 134.579 8.09183 134.617 8.66608Z" fill="#27272F"/>
<path d="M81.649 9.35708C81.223 8.97778 80.701 8.74072 80.133 8.74072C79.517 8.74072 78.995 8.93037 78.616 9.35708C78.19 9.78379 78 10.2579 78 10.9217C78 11.5381 78.19 12.0596 78.616 12.4389C79.043 12.8182 79.517 13.0079 80.133 13.0079C80.701 13.0079 81.223 12.8182 81.649 12.4389C82.076 12.0596 82.265 11.5381 82.265 10.9217C82.265 10.2579 82.076 9.73638 81.649 9.35708Z" fill="#E05420"/>
</svg>
