<svg xmlns="http://www.w3.org/2000/svg" viewBox="0 0 784.66 503.14"><defs><style>.cls-1{fill:#f37123;}.cls-2{fill:#53b8e2;}.cls-3{fill:#31c07b;}.cls-4{fill:none;stroke:#31c07b;stroke-linecap:square;stroke-miterlimit:10;stroke-width:3.22px;}</style></defs><g id="Layer_2" data-name="Layer 2"><g id="Layer_1-2" data-name="Layer 1"><g id="hero"><path class="cls-1" d="M657,196a10.58,10.58,0,1,1,10.58-10.58A10.6,10.6,0,0,1,657,196Zm0-17.84a7.26,7.26,0,1,0,7.26,7.26A7.27,7.27,0,0,0,657,178.12Z"/><path class="cls-1" d="M691.44,203.92A10.58,10.58,0,1,1,702,193.34,10.6,10.6,0,0,1,691.44,203.92Zm0-17.84a7.26,7.26,0,1,0,7.26,7.26A7.27,7.27,0,0,0,691.44,186.08Z"/><path class="cls-1" d="M674.82,224.45H660.68a1.65,1.65,0,0,1-1.32-.65,10.58,10.58,0,1,1,16.78,0A1.67,1.67,0,0,1,674.82,224.45Zm-13.27-3.32H674a7.06,7.06,0,0,0,1.06-3.72,7.26,7.26,0,1,0-14.52,0A7.06,7.06,0,0,0,661.55,221.13Z"/><path class="cls-2" d="M677.3,357.7a21.22,21.22,0,1,1,21.22-21.22A21.24,21.24,0,0,1,677.3,357.7Zm0-39.12a17.9,17.9,0,1,0,17.9,17.9A17.92,17.92,0,0,0,677.3,318.58Z"/><path class="cls-2" d="M759.54,224.45H595.3a1.66,1.66,0,1,1,0-3.32H759.54a1.66,1.66,0,1,1,0,3.32Z"/><path class="cls-2" d="M694.89,291.59H659.66a1.66,1.66,0,0,1-1.18-.49L592.06,224a1.65,1.65,0,0,1-.48-1.17V203.42a1.65,1.65,0,0,1,1.66-1.65H641a1.66,1.66,0,1,1,0,3.31H594.9v17l65.45,66.16H694.2l65.45-66.16v-17H713.51a1.66,1.66,0,1,1,0-3.31h47.8a1.65,1.65,0,0,1,1.66,1.65v19.37a1.65,1.65,0,0,1-.48,1.17L696.07,291.1A1.68,1.68,0,0,1,694.89,291.59Z"/><path class="cls-2" d="M694.94,307a1.66,1.66,0,0,1-1.66-1.66V291.59h-32V305.3a1.66,1.66,0,0,1-3.32,0V289.93a1.66,1.66,0,0,1,1.66-1.66h35.28a1.66,1.66,0,0,1,1.66,1.66V305.3A1.66,1.66,0,0,1,694.94,307Z"/><path class="cls-2" d="M710.91,244.22H644.83a1.66,1.66,0,0,1,0-3.32h66.08a1.66,1.66,0,1,1,0,3.32Z"/><path class="cls-2" d="M255.53,289.27a1.66,1.66,0,0,1-1.66-1.66V277.13a1.66,1.66,0,0,1,1.66-1.66H323a1.66,1.66,0,1,1,0,3.32h-65.8v8.82A1.66,1.66,0,0,1,255.53,289.27Z"/><path class="cls-2" d="M333.67,443.91H255.53a1.66,1.66,0,0,1-1.66-1.65V382.43a1.66,1.66,0,0,1,3.32,0V440.6h76.48a1.66,1.66,0,1,1,0,3.31Z"/><path class="cls-3" d="M301.8,353.48a1.65,1.65,0,0,1-1.24.09c-11.3-3.67-13.58-7.34-13.92-8a1.66,1.66,0,0,1,2.95-1.51c.1.16,2.15,3.2,12,6.39a1.65,1.65,0,0,1,1.06,2.09A1.63,1.63,0,0,1,301.8,353.48Zm-12.18-9.4,0,0Z"/><path class="cls-3" d="M280.76,397.06a1.65,1.65,0,0,1-1.65-1.51A27.57,27.57,0,0,0,273,380a1.66,1.66,0,0,1,2.41-2.29c.24.26,6,6.45,7,17.51a1.66,1.66,0,0,1-1.5,1.8Z"/><path class="cls-3" d="M302.5,368.89c-9.89,0-16.7-8.12-17-8.46a1.66,1.66,0,1,1,2.56-2.11c.06.07,6.12,7.26,14.42,7.26a1.66,1.66,0,1,1,0,3.31Z"/><path class="cls-3" d="M293.89,385.77a1.64,1.64,0,0,1-1.64-1.45c-.84-6.89-11.42-12.43-11.53-12.49a1.65,1.65,0,0,1,1.52-2.94c.5.25,12.25,6.39,13.3,15a1.65,1.65,0,0,1-1.45,1.84Z"/><path class="cls-3" d="M290.43,328.54a8.88,8.88,0,1,1,8.89-8.88A8.89,8.89,0,0,1,290.43,328.54Zm0-14.45a5.57,5.57,0,1,0,5.57,5.57A5.57,5.57,0,0,0,290.43,314.09Z"/><path class="cls-3" d="M307.51,426A8.48,8.48,0,1,1,316,417.5,8.48,8.48,0,0,1,307.51,426Zm0-13.63a5.16,5.16,0,1,0,5.16,5.15A5.16,5.16,0,0,0,307.51,412.35Z"/><path class="cls-2" d="M425.3,224.19c-25.27,0-49.6-3.6-68.5-10.13a1.66,1.66,0,0,1,1.08-3.14c18.56,6.42,42.51,10,67.42,10,55.5,0,100.65-17.09,100.65-38.09,0-8.94-8.63-17.69-24.3-24.65a1.66,1.66,0,1,1,1.35-3c16.94,7.52,26.27,17.35,26.27,27.68C529.27,206,483.6,224.19,425.3,224.19Z"/><path class="cls-2" d="M372.2,150.45a1.66,1.66,0,0,1-.38-3.27,236.72,236.72,0,0,1,53.48-5.82c8.36,0,16.67.4,24.72,1.17a1.66,1.66,0,1,1-.32,3.3c-7.94-.76-16.15-1.15-24.4-1.15a233,233,0,0,0-52.72,5.73A2.45,2.45,0,0,1,372.2,150.45Z"/><path class="cls-2" d="M425.3,282.17c-58.3,0-104-18.19-104-41.41a1.66,1.66,0,1,1,3.32,0c0,21,45.15,38.09,100.65,38.09S526,261.76,526,240.76a1.66,1.66,0,0,1,3.32,0C529.27,264,483.6,282.17,425.3,282.17Z"/><path class="cls-2" d="M425.3,341.19c-58.3,0-104-18.19-104-41.41a1.66,1.66,0,0,1,3.32,0c0,21,45.15,38.1,100.65,38.1a239.81,239.81,0,0,0,44.34-3.95,1.66,1.66,0,0,1,.62,3.26A243.15,243.15,0,0,1,425.3,341.19Z"/><path class="cls-2" d="M425.3,393.11c-58.3,0-104-18.19-104-41.41V235.3a1.66,1.66,0,1,1,3.32,0V351.7c0,21,45.15,38.09,100.65,38.09a240.47,240.47,0,0,0,44.23-3.92,1.66,1.66,0,1,1,.62,3.26A243.71,243.71,0,0,1,425.3,393.11Z"/><path class="cls-2" d="M527.61,315.08a1.66,1.66,0,0,1-1.66-1.66V182.78a1.66,1.66,0,0,1,3.32,0V313.42A1.66,1.66,0,0,1,527.61,315.08Z"/><path class="cls-3" d="M425.3,260a8.3,8.3,0,1,1,8.3-8.3A8.32,8.32,0,0,1,425.3,260Zm0-13.28a5,5,0,1,0,5,5A5,5,0,0,0,425.3,246.74Z"/><path class="cls-3" d="M425.3,318.74a8.3,8.3,0,1,1,8.3-8.3A8.31,8.31,0,0,1,425.3,318.74Zm0-13.28a5,5,0,1,0,5,5A5,5,0,0,0,425.3,305.46Z"/><path class="cls-3" d="M425.3,374.31a8.3,8.3,0,1,1,8.3-8.29A8.31,8.31,0,0,1,425.3,374.31Zm0-13.28a5,5,0,1,0,5,5A5,5,0,0,0,425.3,361Z"/><path class="cls-3" d="M301.55,240.16A74.24,74.24,0,0,1,228,174.54a1.66,1.66,0,1,1,3.29-.38,70.9,70.9,0,0,0,127,34.42,1.67,1.67,0,0,1,2.33-.33,1.65,1.65,0,0,1,.32,2.32,73.56,73.56,0,0,1-50.67,29.08A76.07,76.07,0,0,1,301.55,240.16Z"/><path class="cls-3" d="M373.76,159.18a1.66,1.66,0,0,1-1.65-1.46,70.89,70.89,0,0,0-126-35.76,1.66,1.66,0,0,1-2.6-2.06,74.21,74.21,0,0,1,131.92,37.43,1.66,1.66,0,0,1-1.46,1.84Z"/><path class="cls-3" d="M301.59,218.9a53,53,0,0,1-52.49-46.82,1.65,1.65,0,0,1,1.45-1.84,1.62,1.62,0,0,1,1.84,1.45,49.69,49.69,0,0,0,71.5,38.67,1.66,1.66,0,1,1,1.48,3,52.81,52.81,0,0,1-17.53,5.21A54.7,54.7,0,0,1,301.59,218.9Z"/><path class="cls-3" d="M352.65,161.65a1.66,1.66,0,0,1-1.64-1.47,49.73,49.73,0,0,0-55.07-43.55,49.21,49.21,0,0,0-20.67,7.27,1.66,1.66,0,0,1-1.77-2.81,53,53,0,0,1,80.8,38.7,1.65,1.65,0,0,1-1.45,1.84Z"/><path class="cls-3" d="M222.38,176.85a1.65,1.65,0,0,1-1.49-2.39l14.43-29.22a1.66,1.66,0,0,1,1.3-.91,1.61,1.61,0,0,1,1.47.59L258.86,170a1.68,1.68,0,0,1,.26,1.67,1.65,1.65,0,0,1-1.35,1l-6,.71a1.66,1.66,0,0,1-.39-3.3l3-.35L237.16,149l-11.94,24.18,4.22-.49a1.66,1.66,0,0,1,.38,3.3l-7.25.84Z"/><path class="cls-3" d="M366.52,187.56a1.68,1.68,0,0,1-1.28-.6l-20.77-25.11a1.66,1.66,0,0,1,1.08-2.71l5.84-.68a1.66,1.66,0,0,1,.38,3.3l-2.8.33,17.19,20.78,11.95-24.19-4.22.5a1.66,1.66,0,0,1-.39-3.3l7.25-.84a1.6,1.6,0,0,1,1.55.69,1.66,1.66,0,0,1,.13,1.69L368,186.64a1.66,1.66,0,0,1-1.3.91Z"/><path class="cls-2" d="M301.81,183.89a17,17,0,1,1,17-17A17,17,0,0,1,301.81,183.89Zm0-30.7a13.69,13.69,0,1,0,13.69,13.69A13.7,13.7,0,0,0,301.81,153.19Z"/><path class="cls-2" d="M305.15,199.73h-6.66a2.67,2.67,0,0,1-2.64-2.24l-1-6a24.91,24.91,0,0,1-6.67-2.77l-5,3.59a2.63,2.63,0,0,1-3.41-.28L276,188.22a2.64,2.64,0,0,1-.27-3.42l3.59-5a25.34,25.34,0,0,1-2.78-6.68l-6.05-1a2.64,2.64,0,0,1-2.22-2.62v-5.32a2.64,2.64,0,0,1,2.22-2.62l6.05-1a25.41,25.41,0,0,1,2.78-6.67l-3.58-5a2.66,2.66,0,0,1,.27-3.44l3.75-3.75a2.66,2.66,0,0,1,3.45-.28l5,3.58a25.27,25.27,0,0,1,6.67-2.78l1-6.05a2.64,2.64,0,0,1,2.61-2.22h6.66a2.67,2.67,0,0,1,2.64,2.24l1,6a25.27,25.27,0,0,1,6.67,2.78l5-3.59a2.62,2.62,0,0,1,3.42.28l3.77,3.77a2.64,2.64,0,0,1,.27,3.42l-3.59,5a25.41,25.41,0,0,1,2.78,6.67l6.05,1a2.65,2.65,0,0,1,2.22,2.62v5.32a2.65,2.65,0,0,1-2.22,2.62l-6.05,1a25.34,25.34,0,0,1-2.78,6.68l3.58,5a2.65,2.65,0,0,1-.28,3.44L323.84,192a2.66,2.66,0,0,1-3.45.28l-5-3.58a24.91,24.91,0,0,1-6.67,2.77l-1,6.05A2.64,2.64,0,0,1,305.15,199.73Zm-1.37-3.32h.8l1.07-6.59a1.66,1.66,0,0,1,1.31-1.36,21.78,21.78,0,0,0,7.61-3.16,1.66,1.66,0,0,1,1.88,0l5.43,3.9,3-3-3.91-5.43a1.66,1.66,0,0,1,0-1.88,21.77,21.77,0,0,0,3.17-7.62,1.66,1.66,0,0,1,1.35-1.3L332,169v-4.2l-6.59-1.07a1.66,1.66,0,0,1-1.35-1.3,21.77,21.77,0,0,0-3.17-7.62,1.66,1.66,0,0,1,0-1.88l3.91-5.43-3-3-5.43,3.9a1.66,1.66,0,0,1-1.88,0,21.83,21.83,0,0,0-7.61-3.17,1.64,1.64,0,0,1-1.31-1.35l-1.07-6.59H299L298,143.94a1.65,1.65,0,0,1-1.31,1.35,21.91,21.91,0,0,0-7.61,3.17,1.66,1.66,0,0,1-1.88,0l-5.43-3.9-3,3,3.91,5.43a1.66,1.66,0,0,1,0,1.88,21.77,21.77,0,0,0-3.17,7.62,1.66,1.66,0,0,1-1.35,1.3l-6.59,1.07V169l6.59,1.07a1.66,1.66,0,0,1,1.35,1.3,21.77,21.77,0,0,0,3.17,7.62,1.66,1.66,0,0,1,0,1.88l-3.91,5.43,3,3,5.43-3.9a1.66,1.66,0,0,1,1.88,0,21.7,21.7,0,0,0,7.61,3.16,1.67,1.67,0,0,1,1.31,1.36l1.07,6.59Zm1.35-59.06h0Z"/><path class="cls-2" d="M455.42,108.7a11.42,11.42,0,1,1,11.42-11.42A11.44,11.44,0,0,1,455.42,108.7Zm0-19.53a8.11,8.11,0,1,0,8.1,8.11A8.12,8.12,0,0,0,455.42,89.17Z"/><path class="cls-2" d="M455.42,185.61a11.43,11.43,0,1,1,11.42-11.42A11.44,11.44,0,0,1,455.42,185.61Zm0-19.53a8.11,8.11,0,1,0,8.1,8.11A8.12,8.12,0,0,0,455.42,166.08Z"/><path class="cls-2" d="M493.29,94.84a11.43,11.43,0,1,1,11.43-11.43A11.44,11.44,0,0,1,493.29,94.84Zm0-19.53a8.11,8.11,0,1,0,8.11,8.1A8.1,8.1,0,0,0,493.29,75.31Z"/><path class="cls-2" d="M524.86,70.25a11.43,11.43,0,1,1,11.42-11.42A11.44,11.44,0,0,1,524.86,70.25Zm0-19.53a8.11,8.11,0,1,0,8.1,8.11A8.12,8.12,0,0,0,524.86,50.72Z"/><path class="cls-2" d="M562.73,94.84a11.43,11.43,0,1,1,11.43-11.43A11.44,11.44,0,0,1,562.73,94.84Zm0-19.53a8.11,8.11,0,1,0,8.11,8.1A8.1,8.1,0,0,0,562.73,75.31Z"/><path class="cls-2" d="M493.29,133.29a11.42,11.42,0,1,1,11.43-11.42A11.44,11.44,0,0,1,493.29,133.29Zm0-19.53a8.11,8.11,0,1,0,8.11,8.11A8.11,8.11,0,0,0,493.29,113.76Z"/><path class="cls-2" d="M536.63,166.68a11.42,11.42,0,1,1,11.42-11.42A11.43,11.43,0,0,1,536.63,166.68Zm0-19.52a8.11,8.11,0,1,0,8.11,8.1A8.11,8.11,0,0,0,536.63,147.16Z"/><path class="cls-2" d="M569.15,137.39A11.42,11.42,0,1,1,580.57,126,11.44,11.44,0,0,1,569.15,137.39Zm0-19.53a8.11,8.11,0,1,0,8.1,8.11A8.12,8.12,0,0,0,569.15,117.86Z"/><path class="cls-2" d="M485.12,79.74a1.66,1.66,0,0,1-.88-.25L462.5,65.88a1.66,1.66,0,1,1,1.76-2.82L486,76.68a1.66,1.66,0,0,1-.88,3.06Z"/><path class="cls-2" d="M500.79,78.82a1.63,1.63,0,0,1-1.35-.7,1.65,1.65,0,0,1,.39-2.31l16.72-11.92a1.66,1.66,0,0,1,1.92,2.71L501.75,78.51A1.64,1.64,0,0,1,500.79,78.82Z"/><path class="cls-2" d="M529.62,102.36a1.66,1.66,0,0,1-1.65-1.52l-2.76-32.11a1.66,1.66,0,0,1,3.31-.28l2.76,32.11a1.66,1.66,0,0,1-1.51,1.79Z"/><path class="cls-2" d="M539.35,106a1.66,1.66,0,0,1-1.1-2.9L554.38,88.7a1.66,1.66,0,0,1,2.21,2.48l-16.13,14.39A1.69,1.69,0,0,1,539.35,106Z"/><path class="cls-2" d="M465.18,96.33a1.66,1.66,0,0,1-.57-3.21L483.86,86A1.66,1.66,0,0,1,485,89.07l-19.25,7.16A1.69,1.69,0,0,1,465.18,96.33Z"/><path class="cls-2" d="M455.42,125.88a1.65,1.65,0,0,1-1.66-1.65V107a1.66,1.66,0,1,1,3.32,0v17.19A1.66,1.66,0,0,1,455.42,125.88Z"/><path class="cls-2" d="M464.85,134.92a1.66,1.66,0,0,1-.55-3.22l19.27-6.76a1.66,1.66,0,1,1,1.09,3.13l-19.26,6.76A1.76,1.76,0,0,1,464.85,134.92Z"/><path class="cls-2" d="M460.29,167.39a1.7,1.7,0,0,1-.86-.24,1.67,1.67,0,0,1-.56-2.28l23.83-39.23a1.66,1.66,0,1,1,2.83,1.73l-23.82,39.22A1.67,1.67,0,0,1,460.29,167.39Z"/><path class="cls-2" d="M465.18,173.43a1.66,1.66,0,0,1-.63-3.2l19-7.85a1.66,1.66,0,1,1,1.27,3.06l-19,7.86A1.55,1.55,0,0,1,465.18,173.43Z"/><path class="cls-2" d="M529.46,150.31a1.63,1.63,0,0,1-1-.33l-28.3-21a1.65,1.65,0,0,1-.35-2.32,1.67,1.67,0,0,1,2.32-.34l28.3,21a1.66,1.66,0,0,1,.35,2.32A1.7,1.7,0,0,1,529.46,150.31Z"/><path class="cls-2" d="M523.21,107.41a1.62,1.62,0,0,1-1-.32L500,90.75a1.66,1.66,0,0,1,2-2.68l22.22,16.35a1.65,1.65,0,0,1-1,3Z"/><path class="cls-2" d="M567.73,117.86a1.65,1.65,0,0,1-1.64-1.46l-2.67-23a1.66,1.66,0,1,1,3.3-.38l2.67,23a1.66,1.66,0,0,1-1.46,1.84Z"/><path class="cls-2" d="M543.75,150.24a1.63,1.63,0,0,1-1.23-.54,1.65,1.65,0,0,1,.11-2.34l18-16.29a1.66,1.66,0,0,1,2.23,2.46l-18,16.28A1.65,1.65,0,0,1,543.75,150.24Z"/><path class="cls-2" d="M570.27,171.74a1.57,1.57,0,0,1-.63-.12l-23.87-9.76a1.66,1.66,0,1,1,1.25-3.07l23.87,9.76a1.66,1.66,0,0,1-.62,3.19Z"/><path class="cls-3" d="M455.42,70.25a11.43,11.43,0,1,1,11.42-11.42A11.44,11.44,0,0,1,455.42,70.25Zm0-19.53a8.11,8.11,0,1,0,8.1,8.11A8.12,8.12,0,0,0,455.42,50.72Z"/><path class="cls-3" d="M455.42,147.16a11.43,11.43,0,1,1,11.42-11.43A11.45,11.45,0,0,1,455.42,147.16Zm0-19.53a8.11,8.11,0,1,0,8.1,8.1A8.11,8.11,0,0,0,455.42,127.63Z"/><path class="cls-3" d="M531.76,121.89a11.43,11.43,0,1,1,11.42-11.43A11.44,11.44,0,0,1,531.76,121.89Zm0-19.53a8.11,8.11,0,1,0,8.11,8.1A8.11,8.11,0,0,0,531.76,102.36Z"/><path class="cls-3" d="M493.29,171.74a11.42,11.42,0,1,1,11.43-11.42A11.44,11.44,0,0,1,493.29,171.74Zm0-19.53a8.11,8.11,0,1,0,8.11,8.11A8.11,8.11,0,0,0,493.29,152.21Z"/><path class="cls-3" d="M579.12,185.61a11.43,11.43,0,1,1,11.43-11.42A11.44,11.44,0,0,1,579.12,185.61Zm0-19.53a8.11,8.11,0,1,0,8.11,8.11A8.11,8.11,0,0,0,579.12,166.08Z"/><path class="cls-3" d="M624.88,406.76H470a1.66,1.66,0,0,1-1.66-1.66V316.48a4.73,4.73,0,0,1,4.72-4.72H621.83a4.72,4.72,0,0,1,4.71,4.72V405.1A1.66,1.66,0,0,1,624.88,406.76Zm-153.27-3.32H623.22v-87a1.4,1.4,0,0,0-1.39-1.4H473a1.4,1.4,0,0,0-1.4,1.4Z"/><path class="cls-3" d="M623.35,427.26H471.48a3.19,3.19,0,0,1-3.19-3.19v-19a1.66,1.66,0,0,1,1.66-1.66H624.88a1.66,1.66,0,0,1,1.66,1.66v19A3.19,3.19,0,0,1,623.35,427.26Zm-151.74-20.5v17.31l151.61-.13V406.76Z"/><path class="cls-3" d="M568.41,449.24h-42a1.68,1.68,0,0,1-1.27-.59,1.66,1.66,0,0,1-.37-1.35l3.76-22a1.65,1.65,0,0,1,1.63-1.38h34.47a1.66,1.66,0,0,1,1.64,1.38l3.75,22a1.66,1.66,0,0,1-1.63,1.94Zm-40-3.32h38.05l-3.19-18.66H531.58Z"/><path class="cls-3" d="M585.83,449.24H509a1.66,1.66,0,0,1,0-3.32h76.83a1.66,1.66,0,0,1,0,3.32Z"/><path class="cls-2" d="M513.29,340H485a1.66,1.66,0,0,1-1.66-1.66V327a1.66,1.66,0,0,1,1.66-1.66h28.32A1.66,1.66,0,0,1,515,327v11.29A1.66,1.66,0,0,1,513.29,340Zm-26.66-3.32h25v-8h-25Z"/><path class="cls-2" d="M547.42,340h-22a1.65,1.65,0,0,1-1.65-1.66V327a1.66,1.66,0,0,1,1.65-1.66h22a1.66,1.66,0,0,1,1.65,1.66v11.29A1.65,1.65,0,0,1,547.42,340Zm-20.36-3.32h18.7v-8h-18.7Z"/><path class="cls-2" d="M614.67,328.7H568.41a1.66,1.66,0,1,1,0-3.32h46.26a1.66,1.66,0,1,1,0,3.32Z"/><path class="cls-2" d="M485,395.66a1.66,1.66,0,0,1-1.66-1.66v-.5a1.66,1.66,0,1,1,3.32,0v.5A1.66,1.66,0,0,1,485,395.66Z"/><path class="cls-2" d="M497.46,395.15a1.65,1.65,0,0,1-1.66-1.65v-3.23a1.66,1.66,0,0,1,3.32,0v3.23A1.65,1.65,0,0,1,497.46,395.15Z"/><path class="cls-2" d="M510,395.15a1.65,1.65,0,0,1-1.66-1.65V393a1.66,1.66,0,0,1,3.32,0v.52A1.65,1.65,0,0,1,510,395.15Z"/><path class="cls-2" d="M522.44,395.15a1.65,1.65,0,0,1-1.66-1.65v-9.81a1.66,1.66,0,1,1,3.32,0v9.81A1.66,1.66,0,0,1,522.44,395.15Z"/><path class="cls-2" d="M534.93,395.15a1.65,1.65,0,0,1-1.66-1.65V393a1.66,1.66,0,1,1,3.31,0v.52A1.65,1.65,0,0,1,534.93,395.15Z"/><path class="cls-2" d="M547.42,395.15a1.65,1.65,0,0,1-1.66-1.65v-9.81a1.66,1.66,0,1,1,3.31,0v9.81A1.65,1.65,0,0,1,547.42,395.15Z"/><path class="cls-2" d="M559.91,395.15a1.65,1.65,0,0,1-1.66-1.65V379.4a1.66,1.66,0,1,1,3.31,0v14.1A1.65,1.65,0,0,1,559.91,395.15Z"/><path class="cls-2" d="M572.4,395.15a1.65,1.65,0,0,1-1.66-1.65V372.65a1.66,1.66,0,1,1,3.31,0V393.5A1.65,1.65,0,0,1,572.4,395.15Z"/><path class="cls-2" d="M584.88,395.15a1.65,1.65,0,0,1-1.65-1.65V381.44a1.66,1.66,0,1,1,3.31,0V393.5A1.65,1.65,0,0,1,584.88,395.15Z"/><path class="cls-2" d="M597.37,395.15a1.65,1.65,0,0,1-1.65-1.65V372.65a1.66,1.66,0,1,1,3.31,0V393.5A1.65,1.65,0,0,1,597.37,395.15Z"/><path class="cls-2" d="M609.86,395.15a1.66,1.66,0,0,1-1.66-1.65V383.38a1.66,1.66,0,0,1,3.32,0V393.5A1.65,1.65,0,0,1,609.86,395.15Z"/><path class="cls-2" d="M488.17,381.67h-5.76a1.66,1.66,0,0,1,0-3.32h5.07l13.46-13.46a1.68,1.68,0,0,1,1.18-.49h22.6l10.86-10.86a1.65,1.65,0,0,1,1.17-.48h35.63L583,342.47a1.68,1.68,0,0,1,1.18-.49h25.72a1.66,1.66,0,1,1,0,3.32h-25l-10.58,10.59a1.65,1.65,0,0,1-1.17.48H537.44l-10.86,10.86a1.68,1.68,0,0,1-1.18.49H502.8l-13.46,13.46A1.66,1.66,0,0,1,488.17,381.67Z"/><path class="cls-1" d="M151.57,323a15.62,15.62,0,1,0,15.61,15.62A15.64,15.64,0,0,0,151.57,323Zm0,27.29a11.68,11.68,0,1,1,11.68-11.67A11.69,11.69,0,0,1,151.57,350.26Z"/><path class="cls-1" d="M242.87,323a15.62,15.62,0,1,0,15.62,15.62A15.63,15.63,0,0,0,242.87,323Zm0,27.29a11.68,11.68,0,1,1,11.68-11.67A11.68,11.68,0,0,1,242.87,350.26Z"/><path class="cls-1" d="M257.17,310.38a2.17,2.17,0,0,0-.31-.37l-19.74-15.7a10.37,10.37,0,0,0-14,.77.7.7,0,0,0-.14,0H209.07a13.05,13.05,0,0,0-23.7,0H171a10.36,10.36,0,0,0-14-.76L135.9,311.11h0a31.64,31.64,0,1,0,47.17,30.73l7.36-6a10.28,10.28,0,0,0,3.51-10.52l.06-.06a3.86,3.86,0,0,1,6.28-.27,10.42,10.42,0,0,0,3.46,10.86l7.7,6.22a31.65,31.65,0,1,0,45.74-31.75Zm-60-19A9.19,9.19,0,1,1,188,300.6,9.2,9.2,0,0,1,197.22,291.41Zm-45.65,74.9a27.72,27.72,0,1,1,27.72-27.72A27.75,27.75,0,0,1,151.57,366.31Zm38.71-37.86a6.47,6.47,0,0,1-2.35,4.4l-4.8,3.88a31.67,31.67,0,0,0-31.56-29.8,31,31,0,0,0-4.55.37l12.5-9.95a6.51,6.51,0,0,1,9.16.89l20.16,25.43A6.47,6.47,0,0,1,190.28,328.45Zm6.94-8.95a7.66,7.66,0,0,0-5.11,2,2.82,2.82,0,0,0-.21-.31L174.3,299h10a12.2,12.2,0,0,0-.17,1.61,13.13,13.13,0,0,0,26.26,0,12.2,12.2,0,0,0-.17-1.61h9.66l-17.59,22.18c0,.05-.06.11-.1.16A7.6,7.6,0,0,0,197.22,319.5Zm6.64,8.95a6.51,6.51,0,0,1,1.46-4.81l20.11-25.37a6.51,6.51,0,0,1,9.21-.9l12.41,9.87a32,32,0,0,0-4.18-.31,31.67,31.67,0,0,0-31.57,30l-5.09-4.11A6.43,6.43,0,0,1,203.86,328.45Zm39,37.86a27.72,27.72,0,1,1,27.72-27.72A27.76,27.76,0,0,1,242.87,366.31Z"/><path class="cls-2" d="M196.25,129.24c-4.74-34.69,17.71-68.62,49-82.34,17.14-7.52,36.6-9.52,55.05-6.76a116.86,116.86,0,0,1,49.5,20.21c16.6,11.6,30.4,27,41.05,44.14a1.67,1.67,0,0,0,3-1.28c-5.09-24.44-5.12-52,10.42-72.87,6.42-8.62,15.31-15.72,25.62-19a39.55,39.55,0,0,1,29.72,2.13c10,4.92,17.91,13.82,19.66,25,.33,2.1,3.53,1.21,3.2-.88-3.39-21.66-27.43-34.71-48-30.89-24,4.47-40.43,26.76-45.16,49.55-3.27,15.81-2,32.16,1.3,47.85l3-1.28C374.07,71.16,343.13,45,305.88,37.75,287,34.09,267,35.14,249,41.85A87.65,87.65,0,0,0,207.07,74.3c-11.19,16.24-16.7,36.19-14,55.82.28,2.11,3.48,1.21,3.19-.88Z"/><path class="cls-2" d="M565.67,249.49a160.6,160.6,0,0,0-11.15,32,1.68,1.68,0,0,0,1.6,2.1l31.49-2a1.68,1.68,0,0,0,1.44-2.5q-9.74-13.91-19.45-27.82c-1.22-1.74-4.09-.08-2.87,1.68q9.74,13.91,19.45,27.82l1.43-2.5-31.49,2,1.6,2.1a156.25,156.25,0,0,1,10.82-31.23c.9-1.92-2-3.61-2.87-1.68Z"/><path class="cls-2" d="M207.9,444.46c-7.43,8.81-15.61,18.93-14.39,31.23.51,5.14,2.61,10.19,6.72,13.49,4.29,3.45,9.78,4.49,15.17,4.39,6-.11,11.93-1.43,17.87-2.26,6.86-1,13.78-1.59,20.71-1.88a219.46,219.46,0,0,1,86.29,13.63,1.68,1.68,0,0,0,2-1.16c4.24-14.25,17.94-23.27,31.82-26.53,17.93-4.21,36.45-.57,54.5.72,10.29.73,20.66.69,30.76-1.62,2.08-.47,1.2-3.67-.88-3.2-34.44,7.87-75-13.27-105.73,10.47A38.45,38.45,0,0,0,339.11,501l2-1.16a222.66,222.66,0,0,0-113.64-11c-10,1.64-24.16,3.9-29.24-7.62-5.65-12.79,4.2-25.21,12-34.42,1.37-1.63-1-4-2.35-2.35Z"/><rect class="cls-4" x="605.59" y="9.24" width="49.24" height="41.03" transform="translate(1212.22 273.27) rotate(-160)"/><rect class="cls-4" x="650.26" y="39.22" width="102.08" height="32.82" transform="translate(1341.28 347.78) rotate(-160)"/><rect class="cls-4" x="748.62" y="64.43" width="21.3" height="24.62" transform="matrix(0.94, 0.34, -0.34, 0.94, 72.03, -255.06)"/><path class="cls-4" d="M601.46,36.76,596.71,35c-4.65-10,1.25-26.19,11.23-30.84l4.74,1.73"/><polyline class="cls-4" points="671.75 63.42 678.35 77.67 689.77 70.54"/><line class="cls-4" x1="678.35" y1="77.66" x2="678.35" y2="163.07"/><path class="cls-4" d="M639.3,163.07V153l38.54-73.85a.54.54,0,0,1,1,0L717.4,153v10"/><path class="cls-3" d="M669.34,414.06c-4.42,9.37-1.86,20.39,4.81,28,7.25,8.31,18.74,10.71,29.16,7.84,11.37-3.13,20.09-11.72,24.23-22.66a46.79,46.79,0,0,0,2.86-18c-.18-5.52-1-11.47-3.69-16.39-2.34-4.28-6.74-7.91-11.91-6.58-4.82,1.24-8,6.49-7.86,11.33.46,11.62,14,17.94,24.11,18.35a31.52,31.52,0,0,0,27.3-13.32c6.89-10.08,7.32-23.15,5.78-34.85-1.87-14.31-7-28.3-6.07-42.89.67-11.11,6.43-23.42,17.12-28.11a19.78,19.78,0,0,1,7.88-1.62,1.66,1.66,0,0,0,0-3.32c-9.75.05-17.82,6.31-22.7,14.4-5.92,9.82-6.46,21.18-5,32.29C757.05,351,761,363,761.5,375.61c.39,10.62-1.67,22.24-9.81,29.78a29,29,0,0,1-27.15,6.21c-5-1.42-10-4.42-12.69-9-2.48-4.22-2.05-10.78,3.09-12.89s8.84,3.81,10.22,7.85A42.86,42.86,0,0,1,727,413.84c-.68,10.92-5.48,21.88-14.66,28.23-8.27,5.72-19.8,8-29,3.13a24.55,24.55,0,0,1-12.88-22.87,18.9,18.9,0,0,1,1.76-6.6c.9-1.92-2-3.6-2.87-1.67Z"/><path class="cls-3" d="M147.27,250.13c-17.15,12.08-39.4,9.17-58.46,4.08-20.07-5.37-40.14-13.1-61.26-10-10.08,1.46-19.78,5.5-27.06,12.76a1.66,1.66,0,0,0,2.35,2.34c13.86-13.82,35.31-14.22,53.32-10.47,20.93,4.37,41,13.57,62.76,13.13,10.61-.22,21.25-2.77,30-8.94,1.73-1.22.08-4.1-1.67-2.87Z"/><path class="cls-3" d="M120.39,292.7c-9,8.3-22.48,7.6-33.43,4.21-12.87-4-24.59-11.37-38-13.47-7.16-1.12-14.3-.72-21,2.16-1.95.84-.26,3.7,1.68,2.86,13.13-5.64,27.63-.12,39.9,5.13,11.57,5,23.6,10.3,36.5,8.77a29.45,29.45,0,0,0,16.75-7.31c1.58-1.45-.77-3.79-2.35-2.35Z"/></g></g></g></svg>