<svg xmlns="http://www.w3.org/2000/svg" viewBox="0 0 785.26 503.83"><defs><style>.cls-1,.cls-5{fill:none;}.cls-2{fill:#f37123;}.cls-3{fill:#53b8e2;}.cls-4{fill:#31c07b;}.cls-5{stroke:#31c07b;stroke-linecap:round;stroke-linejoin:round;stroke-width:0;}</style></defs><g id="Layer_2" data-name="Layer 2"><g id="Layer_1-2" data-name="Layer 1"><g id="hero"><path class="cls-1" d="M527.86,99.92l-2.49-29h-.21a11.66,11.66,0,0,1-7.54-2.76L503.79,78a11.67,11.67,0,0,1,.15,11.28l19.11,14A11.87,11.87,0,0,1,527.86,99.92Z"/><path class="cls-1" d="M579.43,166.77a7.81,7.81,0,1,0,7.8,7.8A7.81,7.81,0,0,0,579.43,166.77Z"/><path class="cls-1" d="M532.06,103a7.81,7.81,0,1,0,7.81,7.81A7.82,7.82,0,0,0,532.06,103Z"/><path class="cls-1" d="M532.06,122.57a11.7,11.7,0,0,1-11-15.79L501.53,92.4a11.69,11.69,0,0,1-17.67-2.08l-16.48,6.12q.06.6.06,1.23a11.73,11.73,0,0,1-9.76,11.54v15.36a11.75,11.75,0,0,1,8.65,6.59l16-5.62a11.53,11.53,0,0,1-.48-3.29,11.73,11.73,0,1,1,22.19,5.27l25.57,19a11.64,11.64,0,0,1,14.4-.15l15.39-14a11.61,11.61,0,0,1-1.7-6,11.76,11.76,0,0,1,8.18-11.17l-2.28-19.69-.58,0A11.67,11.67,0,0,1,555.76,93L542.23,105a11.55,11.55,0,0,1,1.56,5.81A11.74,11.74,0,0,1,532.06,122.57Z"/><path class="cls-1" d="M425.6,282.85c-48.38,0-88.09-12.54-100.35-30.13v47.45c0,20.84,45,37.79,100.35,37.79a241,241,0,0,0,42.69-3.66V316.86a5,5,0,0,1,5-5H526V252.72C513.7,270.31,474,282.85,425.6,282.85Zm0,36.57a8.6,8.6,0,1,1,8.6-8.6A8.6,8.6,0,0,1,425.6,319.42Z"/><path class="cls-1" d="M425.6,361.72a4.68,4.68,0,1,0,4.68,4.68A4.69,4.69,0,0,0,425.6,361.72Z"/><path class="cls-1" d="M455.72,67a7.81,7.81,0,1,0-7.81-7.81A7.83,7.83,0,0,0,455.72,67Z"/><path class="cls-1" d="M425.6,306.14a4.69,4.69,0,1,0,4.68,4.68A4.69,4.69,0,0,0,425.6,306.14Z"/><path class="cls-1" d="M325.25,311.75v40.33c0,20.84,45,37.8,100.35,37.8a240.85,240.85,0,0,0,42.69-3.66V338.28a245.46,245.46,0,0,1-42.69,3.6C377.22,341.88,337.51,329.33,325.25,311.75Zm109,54.65a8.6,8.6,0,1,1-8.6-8.6A8.61,8.61,0,0,1,434.2,366.4Z"/><path class="cls-1" d="M561.64,126.35a7.81,7.81,0,1,0,7.81-7.8A7.81,7.81,0,0,0,561.64,126.35Z"/><path class="cls-1" d="M493.6,130.06a7.81,7.81,0,1,0-7.81-7.81A7.81,7.81,0,0,0,493.6,130.06Z"/><path class="cls-1" d="M529.13,155.65a7.81,7.81,0,1,0,7.8-7.81A7.81,7.81,0,0,0,529.13,155.65Z"/><path class="cls-1" d="M570.84,83.8a7.81,7.81,0,1,0-7.8,7.8A7.82,7.82,0,0,0,570.84,83.8Z"/><path class="cls-1" d="M455.72,105.47a7.81,7.81,0,1,0-7.81-7.8A7.82,7.82,0,0,0,455.72,105.47Z"/><path class="cls-1" d="M493.6,76a7.79,7.79,0,0,0-6.51,3.51h0A7.8,7.8,0,1,0,493.6,76Z"/><path class="cls-1" d="M493.6,168.51a7.81,7.81,0,1,0-7.81-7.8A7.81,7.81,0,0,0,493.6,168.51Z"/><path class="cls-1" d="M525.16,67a7.81,7.81,0,1,0-7.81-7.81A7.83,7.83,0,0,0,525.16,67Z"/><path class="cls-1" d="M455.72,143.92a7.81,7.81,0,1,0-7.81-7.8A7.82,7.82,0,0,0,455.72,143.92Z"/><path class="cls-1" d="M455.72,182.38a7.81,7.81,0,1,0-7.81-7.81A7.82,7.82,0,0,0,455.72,182.38Z"/><path class="cls-1" d="M690.66,178.81a7,7,0,1,0,7,7A7,7,0,0,0,690.66,178.81Z"/><path class="cls-1" d="M664.74,193.76a7,7,0,1,0,7,7A7,7,0,0,0,664.74,193.76Z"/><path class="cls-1" d="M690.66,210.83a7,7,0,0,0-7,7,6.88,6.88,0,0,0,.93,3.43h12.06a6.88,6.88,0,0,0,.93-3.43A7,7,0,0,0,690.66,210.83Z"/><path class="cls-1" d="M683.59,225.14H598.23l62.55,63.22h33.59l62.55-63.22H683.59ZM713.18,243a2,2,0,0,1-2,2H645.13a2,2,0,0,1,0-3.91h66.09A2,2,0,0,1,713.18,243Z"/><rect class="cls-1" x="611.9" y="7.44" width="37.21" height="45.42" transform="matrix(0.34, -0.94, 0.94, 0.34, 386.52, 612.31)"/><circle class="cls-1" cx="290.74" cy="320.04" r="5.27"/><polygon class="cls-1" points="687.4 70.35 675.11 65.88 679.48 75.29 687.4 70.35"/><rect class="cls-1" x="749.17" y="68.38" width="20.8" height="17.48" transform="translate(427.33 764.52) rotate(-70)"/><rect class="cls-1" x="687.1" y="6.89" width="29.01" height="98.26" transform="translate(408.98 696.15) rotate(-70)"/><path class="cls-1" d="M598.93,18.65c-2,5.4-2.15,11.09-.49,15.26l2.18.79,9.92-27.26-2.18-.79C604.41,8.78,600.9,13.26,598.93,18.65Z"/><path class="cls-1" d="M243.18,366.39A27.42,27.42,0,1,0,215.76,339,27.45,27.45,0,0,0,243.18,366.39Zm0-43.33A15.92,15.92,0,1,1,227.26,339,15.93,15.93,0,0,1,243.18,323.06Z"/><path class="cls-1" d="M243.18,350.35A11.38,11.38,0,1,0,231.8,339,11.38,11.38,0,0,0,243.18,350.35Z"/><path class="cls-1" d="M197.52,309.87a8.89,8.89,0,1,0-8.89-8.89A8.9,8.9,0,0,0,197.52,309.87Z"/><path class="cls-1" d="M307.81,413a4.86,4.86,0,1,0,4.86,4.86A4.86,4.86,0,0,0,307.81,413Z"/><path class="cls-1" d="M197.52,319.58a7.93,7.93,0,0,1,4.88,1.7l17.12-21.61h-8.69v0A8.68,8.68,0,0,1,211,301a13.43,13.43,0,1,1-26.85,0,8.7,8.7,0,0,1,.11-1.27v0h-9l17.26,21.78A7.88,7.88,0,0,1,197.52,319.58Z"/><path class="cls-1" d="M226,298.84l-20.11,25.38a6.23,6.23,0,0,0,.85,8.79l4.63,3.74A31.91,31.91,0,0,1,243.18,307a27.48,27.48,0,0,1,3.15.18L234.76,298a6.21,6.21,0,0,0-4-1.43c-.2,0-.41,0-.61,0A6.13,6.13,0,0,0,226,298.84Z"/><path class="cls-1" d="M151.87,311.55A27.42,27.42,0,1,0,179.29,339,27.45,27.45,0,0,0,151.87,311.55Zm0,43.34A15.92,15.92,0,1,1,167.79,339,15.93,15.93,0,0,1,151.87,354.89Z"/><path class="cls-1" d="M188.05,333a6.22,6.22,0,0,0,.86-8.75l-20.16-25.44a6.11,6.11,0,0,0-4.18-2.22l-.62,0A6.12,6.12,0,0,0,160,298l-11.65,9.27a29.76,29.76,0,0,1,3.51-.22,32,32,0,0,1,31.82,29.5Z"/><path class="cls-1" d="M151.87,350.35A11.38,11.38,0,1,0,140.49,339,11.39,11.39,0,0,0,151.87,350.35Z"/><path class="cls-1" d="M302.11,180.66a13.4,13.4,0,1,0-13.39-13.4A13.41,13.41,0,0,0,302.11,180.66Z"/><polygon class="cls-1" points="532.14 427.94 529.05 446 566.39 446 563.3 427.94 532.14 427.94"/><path class="cls-1" d="M272.21,169.11l6.34,1a2,2,0,0,1,1.6,1.54,21.52,21.52,0,0,0,3.12,7.51,1.94,1.94,0,0,1,0,2.22l-3.75,5.22,2.6,2.61,5.22-3.76a2,2,0,0,1,1.15-.37,1.94,1.94,0,0,1,1.07.32,21.64,21.64,0,0,0,7.52,3.12,2,2,0,0,1,1.53,1.61l1,6.33h5l1-6.33a2,2,0,0,1,1.54-1.61,21.59,21.59,0,0,0,7.51-3.12,2,2,0,0,1,2.22,0l5.22,3.76,2.61-2.61L321,181.41a2,2,0,0,1-.05-2.22,21.81,21.81,0,0,0,3.13-7.51,2,2,0,0,1,1.6-1.54l6.34-1v-3.69l-6.34-1a2,2,0,0,1-1.6-1.54,21.54,21.54,0,0,0-3.13-7.51,2,2,0,0,1,.05-2.22l3.76-5.22-2.61-2.61-5.22,3.76a2,2,0,0,1-2.22,0A21.54,21.54,0,0,0,307.2,146a1.94,1.94,0,0,1-1.54-1.6l-1-6.34h-5l-1,6.34A2,2,0,0,1,297,146a21.47,21.47,0,0,0-7.52,3.13,1.92,1.92,0,0,1-1.07.32,2,2,0,0,1-1.15-.37l-5.22-3.76-2.6,2.61,3.75,5.22a1.94,1.94,0,0,1,0,2.22,21.59,21.59,0,0,0-3.12,7.51,2,2,0,0,1-1.6,1.54l-6.34,1ZM302.11,150a17.32,17.32,0,1,1-17.31,17.31A17.33,17.33,0,0,1,302.11,150Z"/><rect class="cls-1" x="527.66" y="329.39" width="18.09" height="7.37"/><rect class="cls-1" x="487.23" y="329.39" width="24.41" height="7.37"/><path class="cls-1" d="M623.23,407.44h-151v16.71l57.75,0a2.26,2.26,0,0,1,.53-.08H565a1.86,1.86,0,0,1,.42.05l57.86-.05Z"/><path class="cls-1" d="M622.13,315.77H473.31a1.1,1.1,0,0,0-1.1,1.09V336h0v67.56h151V316.86A1.09,1.09,0,0,0,622.13,315.77Zm-98.38,11.66a2,2,0,0,1,2-2h22a2,2,0,0,1,2,2v11.29a2,2,0,0,1-2,1.95h-22a2,2,0,0,1-2-1.95Zm-40.43,0a2,2,0,0,1,1.95-2H513.6a2,2,0,0,1,1.95,2v11.29a2,2,0,0,1-1.95,1.95H485.27a2,2,0,0,1-1.95-1.95Zm3.91,67a2,2,0,0,1-3.91,0v-.51a2,2,0,1,1,3.91,0Zm12.49-.51a2,2,0,0,1-3.92,0v-3.23a2,2,0,0,1,3.92,0Zm12.49,0a2,2,0,0,1-3.92,0v-.51a2,2,0,0,1,3.92,0Zm12.49,0a2,2,0,1,1-3.92,0v-9.81a2,2,0,0,1,3.92,0Zm12.49,0a2,2,0,1,1-3.92,0v-.51a2,2,0,0,1,3.92,0Zm12.49,0a2,2,0,1,1-3.92,0v-9.81a2,2,0,1,1,3.92,0Zm12.49,0a2,2,0,1,1-3.92,0v-14.1a2,2,0,1,1,3.92,0Zm12.49,0a2,2,0,1,1-3.92,0V373a2,2,0,0,1,3.92,0Zm12.49,0a2,2,0,1,1-3.92,0V381.82a2,2,0,1,1,3.92,0Zm12.49,0a2,2,0,0,1-3.92,0V373a2,2,0,0,1,3.92,0Zm12.48,0a2,2,0,1,1-3.91,0V383.76a2,2,0,1,1,3.91,0Zm-2-47.9H585.25l-10.5,10.5a2,2,0,0,1-1.38.58H537.86l-10.77,10.77a1.94,1.94,0,0,1-1.38.57H503.23l-13.38,13.38a1.94,1.94,0,0,1-1.38.57h-5.76a2,2,0,1,1,0-3.92h5L501,365.06a2,2,0,0,1,1.39-.57H524.9l10.77-10.78a1.94,1.94,0,0,1,1.38-.57h35.51l10.49-10.5a2,2,0,0,1,1.39-.57h25.73a2,2,0,0,1,0,3.91ZM615,329.39H568.71a2,2,0,0,1,0-3.92H615a2,2,0,1,1,0,3.92Z"/><path class="cls-1" d="M425.6,256.78a4.68,4.68,0,1,0-4.68-4.68A4.69,4.69,0,0,0,425.6,256.78Z"/><path class="cls-1" d="M325.25,237.14v4c0,20.84,45,37.8,100.35,37.8S526,262,526,241.14v-46.4c-12.25,17.59-52,30.13-100.35,30.13-24.75,0-48.59-3.45-67.33-9.72A73.61,73.61,0,0,1,325.25,237.14ZM425.6,243.5a8.6,8.6,0,1,1-8.59,8.6A8.61,8.61,0,0,1,425.6,243.5Z"/><path class="cls-1" d="M724.93,411.7c.71.2,1.44.38,2.18.53a40.65,40.65,0,0,0-1.94-14.18c-1.27-3.73-4.08-8.09-7.79-8.09a5.26,5.26,0,0,0-2,.42,6.75,6.75,0,0,0-3.92,4.23,10.4,10.4,0,0,0,1,8.23C714.78,406.88,719.35,410.1,724.93,411.7Z"/><path class="cls-1" d="M559,280.23l25.37-1.58-16.65-23.82A157.57,157.57,0,0,0,559,280.23Z"/><path class="cls-1" d="M677.6,354.46A17.6,17.6,0,1,0,660,336.87,17.61,17.61,0,0,0,677.6,354.46Z"/><path class="cls-2" d="M653.86,200.72a10.88,10.88,0,1,0,10.88-10.87A10.89,10.89,0,0,0,653.86,200.72Zm10.88,7a7,7,0,1,1,7-7A7,7,0,0,1,664.74,207.69Z"/><path class="cls-2" d="M679.78,185.77a10.88,10.88,0,1,0,10.88-10.88A10.89,10.89,0,0,0,679.78,185.77Zm10.88,7a7,7,0,1,1,7-7A7,7,0,0,1,690.66,192.73Z"/><path class="cls-2" d="M684.63,221.22a6.88,6.88,0,0,1-.93-3.43,7,7,0,0,1,13.92,0,6.88,6.88,0,0,1-.93,3.43H701a10.46,10.46,0,0,0,.57-3.43,10.88,10.88,0,0,0-21.76,0,10.46,10.46,0,0,0,.57,3.43Z"/><path class="cls-3" d="M699.12,336.87a21.52,21.52,0,1,0-21.52,21.51A21.54,21.54,0,0,0,699.12,336.87Zm-21.52-17.6a17.6,17.6,0,1,1-17.6,17.6A17.61,17.61,0,0,1,677.6,319.27Z"/><path class="cls-3" d="M658,291.12v14.56a2,2,0,1,0,3.92,0V292.27h31.36v13.41a2,2,0,1,0,3.92,0V291.07L763,224.55a2,2,0,0,0,.57-1.37V203.81a2,2,0,0,0-2-2H713.81a2,2,0,1,0,0,3.92h45.85v15.45H595.5V205.77h45.84a2,2,0,0,0,0-3.92h-47.8a2,2,0,0,0-2,2v19.37a1.91,1.91,0,0,0,.57,1.37Zm36.37-2.76H660.78l-62.55-63.22H756.92Z"/><path class="cls-3" d="M643.18,243a2,2,0,0,0,2,2h66.09a2,2,0,1,0,0-3.91H645.13A2,2,0,0,0,643.18,243Z"/><path class="cls-3" d="M255.83,380.86a2,2,0,0,0-2,2v59.82a2,2,0,0,0,2,2H334a2,2,0,0,0,0-3.92H257.79V382.82A2,2,0,0,0,255.83,380.86Z"/><path class="cls-4" d="M302,350.51c-9.32-3-11.58-5.91-11.81-6.23l-.23.17.22-.18a2,2,0,0,0-1.73-1,2,2,0,0,0-.86.2,2,2,0,0,0-.9,2.62c.35.72,2.68,4.49,14.1,8.19a2.11,2.11,0,0,0,.61.1,2,2,0,0,0,.86-.2,2,2,0,0,0,1-1.16A2,2,0,0,0,302,350.51Zm-12-6.06h0Z"/><line class="cls-5" x1="289.93" y1="344.46" x2="289.95" y2="344.45"/><path class="cls-4" d="M274.52,377.32a2,2,0,0,0-1.42,3.31,27.3,27.3,0,0,1,6,15.33,2,2,0,0,0,1.95,1.79h.17a2,2,0,0,0,1.78-2.12c-1-11.23-6.83-17.43-7.07-17.69A2,2,0,0,0,274.52,377.32Z"/><path class="cls-4" d="M302.8,365.66c-8.08,0-13.95-6.86-14.19-7.15a2,2,0,0,0-1.51-.71,2,2,0,0,0-1.51,3.2c.29.35,7.24,8.58,17.21,8.58a2,2,0,0,0,0-3.92Z"/><path class="cls-4" d="M280.05,369.85a2,2,0,0,0,.84,2.64c.43.22,10.55,5.63,11.36,12.25a2,2,0,0,0,1.94,1.72.93.93,0,0,0,.24,0,2,2,0,0,0,1.31-.73,2,2,0,0,0,.4-1.45c-1.08-8.8-12.95-15-13.45-15.26a2,2,0,0,0-.9-.22A1.94,1.94,0,0,0,280.05,369.85Z"/><path class="cls-4" d="M290.74,310.86a9.19,9.19,0,1,0,9.18,9.18A9.19,9.19,0,0,0,290.74,310.86Zm0,14.45A5.27,5.27,0,1,1,296,320,5.27,5.27,0,0,1,290.74,325.31Z"/><path class="cls-4" d="M307.81,409.12a8.77,8.77,0,1,0,8.78,8.77A8.78,8.78,0,0,0,307.81,409.12Zm0,13.62a4.86,4.86,0,1,1,4.86-4.85A4.85,4.85,0,0,1,307.81,422.74Z"/><path class="cls-3" d="M356.08,211.7Z"/><path class="cls-3" d="M445.73,142.23c-6.6-.51-13.35-.78-20.13-.78a238.69,238.69,0,0,0-51.66,5.41c.34,1.25.64,2.53.91,3.81a234.77,234.77,0,0,1,50.75-5.3c8.24,0,16.44.38,24.37,1.14h.35A11.81,11.81,0,0,1,445.73,142.23Z"/><path class="cls-3" d="M472.21,336h0Z"/><path class="cls-3" d="M468.29,386.22a240.85,240.85,0,0,1-42.69,3.66c-55.33,0-100.35-17-100.35-37.8V311.75c12.26,17.58,52,30.13,100.35,30.13a245.46,245.46,0,0,0,42.69-3.6v-4A241,241,0,0,1,425.6,338c-55.33,0-100.35-16.95-100.35-37.79V252.72c12.26,17.59,52,30.13,100.35,30.13S513.7,270.31,526,252.72v59.13h3.92V183.16c0-10.31-9.15-20.11-25.78-27.64a11.75,11.75,0,0,1,1.22,4.91C518.65,167,526,175,526,183.16c0,20.84-45,37.8-100.35,37.8-23.71,0-46.54-3.22-64.67-9.06-.86,1.11-1.75,2.19-2.66,3.25,18.74,6.27,42.58,9.72,67.33,9.72,48.39,0,88.1-12.54,100.35-30.13v46.4c0,20.84-45,37.8-100.35,37.8s-100.35-17-100.35-37.8v-4c-1.29.42-2.6.8-3.92,1.15v37.27h-65.5a2,2,0,0,0-2,2V288a2,2,0,1,0,3.91,0v-8.53h63.54v72.61c0,23.39,45.8,41.71,104.27,41.71a245.21,245.21,0,0,0,42.69-3.6Z"/><path class="cls-4" d="M425.6,260.7a8.6,8.6,0,1,0-8.59-8.6A8.61,8.61,0,0,0,425.6,260.7Zm0-13.28a4.68,4.68,0,1,1-4.68,4.68A4.69,4.69,0,0,1,425.6,247.42Z"/><path class="cls-4" d="M425.6,302.23a8.6,8.6,0,1,0,8.6,8.59A8.6,8.6,0,0,0,425.6,302.23Zm0,13.28a4.69,4.69,0,1,1,4.68-4.69A4.69,4.69,0,0,1,425.6,315.51Z"/><path class="cls-4" d="M417,366.4a8.6,8.6,0,1,0,8.59-8.6A8.6,8.6,0,0,0,417,366.4Zm8.59,4.68a4.68,4.68,0,1,1,4.68-4.68A4.69,4.69,0,0,1,425.6,371.08Z"/><path class="cls-4" d="M325.25,237.14a73.61,73.61,0,0,0,33-22c.91-1.06,1.8-2.14,2.66-3.25.19-.26.4-.5.6-.76a2,2,0,0,0-.39-2.74,1.95,1.95,0,0,0-2.74.38c-.75,1-1.52,2-2.32,2.92h0a69.93,69.93,0,0,1-45.89,24.74,73.06,73.06,0,0,1-8.35.49,70.64,70.64,0,0,1-70-62.42,1.93,1.93,0,0,0-1.94-1.74h0l-.22,0-3.67.43,11.49-23.28,16.55,20-2.46.29a2.59,2.59,0,0,0-.4.09h-.4a2,2,0,0,0-1.72,2.18A53.3,53.3,0,0,0,325.81,214a2,2,0,0,0-.88-3.71,1.89,1.89,0,0,0-.87.21,49.24,49.24,0,0,1-16.34,4.85,50.22,50.22,0,0,1-5.74.34A49.34,49.34,0,0,1,253.26,174l4.85-.56a2,2,0,0,0,1.59-1.22,2,2,0,0,0-.31-2l-20.77-25.11a2,2,0,0,0-1.49-.71h-.25a2,2,0,0,0-1.53,1.08l-14.42,29.22a2,2,0,0,0,1.75,2.83h.23l5.36-.63a74.49,74.49,0,0,0,73.58,63.94,75.42,75.42,0,0,0,19.48-2.55C322.65,237.94,324,237.56,325.25,237.14Z"/><path class="cls-4" d="M373.94,146.86A74.55,74.55,0,0,0,302.13,91.8a75.85,75.85,0,0,0-8.77.51,74,74,0,0,0-49.8,27.79,1.92,1.92,0,0,0-.41,1.44,2,2,0,0,0,.73,1.31,1.91,1.91,0,0,0,1.21.42,1.94,1.94,0,0,0,1.54-.74A70.17,70.17,0,0,1,293.82,96.2a72.35,72.35,0,0,1,8.31-.48,70.6,70.6,0,0,1,69.93,62,2.26,2.26,0,0,0,0,.45,2,2,0,0,0,1.92,1.74l.26,0h.07l3.6-.42-11.5,23.28-16.54-20,2.25-.27a1.91,1.91,0,0,0,.52-.14,1.69,1.69,0,0,0,.33,0h.23a2,2,0,0,0,1.71-2.17,53.29,53.29,0,0,0-81.26-38.93,2,2,0,0,0-.61,2.7,1.94,1.94,0,0,0,1.66.92,2,2,0,0,0,1-.3,48.79,48.79,0,0,1,20.55-7.23A50.08,50.08,0,0,1,302,117a49.33,49.33,0,0,1,48.72,41.68l-4.92.57a2,2,0,0,0-1.28,3.2l20.77,25.11a2,2,0,0,0,1.51.71l.23,0a2,2,0,0,0,1.53-1.08L383,157.94a2,2,0,0,0-.16-2,1.93,1.93,0,0,0-1.57-.83H381l-5.28.62c-.25-1.71-.53-3.4-.89-5.07C374.58,149.39,374.28,148.11,373.94,146.86Z"/><path class="cls-3" d="M302.11,184.58a17.32,17.32,0,1,0-17.31-17.32A17.33,17.33,0,0,0,302.11,184.58Zm0-30.71a13.4,13.4,0,1,1-13.39,13.39A13.41,13.41,0,0,1,302.11,153.87Z"/><path class="cls-3" d="M270.77,161.69a2.94,2.94,0,0,0-2.48,2.91v5.33a2.94,2.94,0,0,0,2.47,2.91l5.86.95a25.5,25.5,0,0,0,2.66,6.39L275.81,185a3,3,0,0,0,.3,3.81l3.78,3.77a2.93,2.93,0,0,0,2.08.87,3,3,0,0,0,1.72-.56l4.83-3.48a25.5,25.5,0,0,0,6.39,2.66l.95,5.84a3,3,0,0,0,2.93,2.49h6.66a2.94,2.94,0,0,0,2.91-2.47l1-5.86a25.65,25.65,0,0,0,6.39-2.66l4.81,3.47a3,3,0,0,0,1.73.56,2.91,2.91,0,0,0,2.1-.88l3.75-3.74a3,3,0,0,0,.31-3.83l-3.47-4.82a25.19,25.19,0,0,0,2.66-6.39l5.86-.95a2.94,2.94,0,0,0,2.47-2.91V164.6a2.94,2.94,0,0,0-2.47-2.91l-5.86-1a25.5,25.5,0,0,0-2.66-6.39l3.48-4.82a2.94,2.94,0,0,0-.31-3.81l-3.77-3.77a2.93,2.93,0,0,0-2.08-.87,2.88,2.88,0,0,0-1.72.56l-4.83,3.48a25.13,25.13,0,0,0-6.39-2.66l-1-5.84a3,3,0,0,0-2.93-2.49h-6.65a2.94,2.94,0,0,0-2.92,2.47l-.95,5.86a25.13,25.13,0,0,0-6.39,2.66l-4.81-3.47a3,3,0,0,0-3.84.31l-3.75,3.75a3,3,0,0,0-.3,3.83l3.46,4.81a25.65,25.65,0,0,0-2.66,6.39Zm9.38,1.16a21.59,21.59,0,0,1,3.12-7.51,1.94,1.94,0,0,0,0-2.22l-3.75-5.22,2.6-2.61,5.22,3.76a2,2,0,0,0,1.15.37,1.92,1.92,0,0,0,1.07-.32A21.47,21.47,0,0,1,297,146a2,2,0,0,0,1.53-1.6l1-6.34h5l1,6.34a1.94,1.94,0,0,0,1.54,1.6,21.54,21.54,0,0,1,7.51,3.13,2,2,0,0,0,2.22,0l5.22-3.76,2.61,2.61L321,153.12a2,2,0,0,0-.05,2.22,21.54,21.54,0,0,1,3.13,7.51,2,2,0,0,0,1.6,1.54l6.34,1v3.69l-6.34,1a2,2,0,0,0-1.6,1.54,21.81,21.81,0,0,1-3.13,7.51,2,2,0,0,0,.05,2.22l3.76,5.22-2.61,2.61-5.22-3.76a2,2,0,0,0-2.22,0,21.59,21.59,0,0,1-7.51,3.12,2,2,0,0,0-1.54,1.61l-1,6.33h-5l-1-6.33a2,2,0,0,0-1.53-1.61,21.64,21.64,0,0,1-7.52-3.12,1.94,1.94,0,0,0-1.07-.32,2,2,0,0,0-1.15.37l-5.22,3.76-2.6-2.61,3.75-5.22a1.94,1.94,0,0,0,0-2.22,21.52,21.52,0,0,1-3.12-7.51,2,2,0,0,0-1.6-1.54l-6.34-1v-3.69l6.34-1A2,2,0,0,0,280.15,162.85Z"/><path class="cls-3" d="M455.72,124.4a11.52,11.52,0,0,1,2,.17V109.21a11.73,11.73,0,0,0,9.76-11.54q0-.63-.06-1.23l16.48-6.12a11.69,11.69,0,0,0,17.67,2.08l19.55,14.38a11.87,11.87,0,0,1,2-3.42l-19.11-14A11.67,11.67,0,0,0,503.79,78l13.83-9.86a11.66,11.66,0,0,0,7.54,2.76h.21l2.49,29a11.6,11.6,0,0,1,3.87-.78l-2.49-28.95a11.72,11.72,0,1,0-15.8-11,11.61,11.61,0,0,0,1.64,6L501.31,75a11.67,11.67,0,0,0-16.33.89L466.32,64.19a11.9,11.9,0,0,1-2.24,3.23l18.75,11.74a11.5,11.5,0,0,0-.57,7.57l-15.95,5.93a11.72,11.72,0,1,0-12.55,16.55v15.36A11.52,11.52,0,0,1,455.72,124.4Zm0-34.54a7.81,7.81,0,1,1-7.81,7.81A7.82,7.82,0,0,1,455.72,89.86ZM501.4,83.8a7.81,7.81,0,1,1-14.32-4.29h0a7.8,7.8,0,0,1,14.31,4.3Zm23.76-32.39a7.81,7.81,0,1,1-7.81,7.8A7.82,7.82,0,0,1,525.16,51.41Z"/><path class="cls-3" d="M482.14,163.16l-15.78,6.51a11.84,11.84,0,0,0-3.14-4.1L484.82,130a11.66,11.66,0,0,0,16.91.67L527,149.43a11.7,11.7,0,0,0,19.29,13.23l21.8,8.92a11.81,11.81,0,0,1,1.62-3.57l-21.61-8.84a11.61,11.61,0,0,0-1.4-10L562,135.37a11.71,11.71,0,1,0,7.82-20.72l-2.32-20a11.74,11.74,0,1,0-14.33-4.58l-13.4,12a11.76,11.76,0,0,1,2.49,3L555.76,93A11.67,11.67,0,0,0,563,95.52l.58,0,2.28,19.69a11.76,11.76,0,0,0-8.18,11.17,11.61,11.61,0,0,0,1.7,6l-15.39,14a11.64,11.64,0,0,0-14.4.15l-25.57-19a11.72,11.72,0,1,0-22.19-5.27,11.53,11.53,0,0,0,.48,3.29l-16,5.62a11.48,11.48,0,0,1,1.05,3.78l12.52-4.39-20.07,33.06a11.45,11.45,0,0,0-4.11-.76,11.72,11.72,0,1,0,11.72,11.72c0-.36,0-.73-.05-1.08l16.21-6.69A11.59,11.59,0,0,1,482.14,163.16Zm-26.42,3.61a7.81,7.81,0,1,1-7.81,7.8A7.82,7.82,0,0,1,455.72,166.77Zm37.88-52.32a7.81,7.81,0,1,1-7.81,7.8A7.81,7.81,0,0,1,493.6,114.45Zm51.14,41.2a7.81,7.81,0,1,1-7.81-7.81A7.81,7.81,0,0,1,544.74,155.65Zm24.71-37.1a7.81,7.81,0,1,1-7.81,7.8A7.81,7.81,0,0,1,569.45,118.55ZM555.23,83.8A7.81,7.81,0,1,1,563,91.6,7.82,7.82,0,0,1,555.23,83.8Z"/><path class="cls-4" d="M466.32,64.19a11.69,11.69,0,1,0-2.24,3.23A11.9,11.9,0,0,0,466.32,64.19Zm-10.6-12.78a7.81,7.81,0,1,1-7.81,7.8A7.82,7.82,0,0,1,455.72,51.41Z"/><path class="cls-4" d="M466.33,131.16a11.75,11.75,0,0,0-8.65-6.59,11.38,11.38,0,0,0-3.92,0,11.71,11.71,0,0,0-3.44,21.94,11.54,11.54,0,0,0,5.4,1.33,11.74,11.74,0,0,0,11.72-11.72,11.64,11.64,0,0,0-1.11-5Zm-10.61-2.85a7.81,7.81,0,1,1-7.81,7.81A7.82,7.82,0,0,1,455.72,128.31Z"/><path class="cls-4" d="M527.86,99.92a11.64,11.64,0,0,0-6.78,6.86,11.72,11.72,0,1,0,22.71,4.07,11.55,11.55,0,0,0-1.56-5.81,11.75,11.75,0,0,0-10.17-5.91h-.33A11.6,11.6,0,0,0,527.86,99.92Zm12,10.93a7.81,7.81,0,1,1-7.81-7.81A7.81,7.81,0,0,1,539.87,110.85Z"/><path class="cls-4" d="M504.09,155.52a11.69,11.69,0,1,0,1.23,5.19c0-.1,0-.19,0-.28A11.75,11.75,0,0,0,504.09,155.52Zm-18.3,5.19a7.81,7.81,0,1,1,7.81,7.8A7.81,7.81,0,0,1,485.79,160.71Z"/><path class="cls-4" d="M568.1,171.58a11.72,11.72,0,1,0,11.33-8.73,11.72,11.72,0,0,0-11.33,8.73Zm11.33,10.8a7.81,7.81,0,1,1,7.8-7.81A7.81,7.81,0,0,1,579.43,182.38Z"/><path class="cls-4" d="M622.13,311.85H473.31a5,5,0,0,0-5,5V424.45a3.49,3.49,0,0,0,3.49,3.49h56.38L525.08,446H509.31a2,2,0,1,0,0,3.92h76.82a2,2,0,1,0,0-3.92H570.36l-3.08-18.06h56.37a3.49,3.49,0,0,0,3.49-3.49V316.86A5,5,0,0,0,622.13,311.85ZM565,424H530.49a2.26,2.26,0,0,0-.53.08l-57.75,0V407.44h151V424l-57.86.05A1.86,1.86,0,0,0,565,424Zm58.28-20.49h-151V336h0v-19.1a1.1,1.1,0,0,1,1.1-1.09H622.13a1.09,1.09,0,0,1,1.1,1.09ZM529.05,446l3.09-18.06H563.3L566.39,446Z"/><path class="cls-3" d="M485.27,340.67H513.6a2,2,0,0,0,1.95-1.95V327.43a2,2,0,0,0-1.95-2H485.27a2,2,0,0,0-1.95,2v11.29A2,2,0,0,0,485.27,340.67Zm26.37-11.28v7.37H487.23v-7.37Z"/><path class="cls-3" d="M525.71,340.67h22a2,2,0,0,0,2-1.95V327.43a2,2,0,0,0-2-2h-22a2,2,0,0,0-2,2v11.29A2,2,0,0,0,525.71,340.67Zm20-11.28v7.37h-18.1v-7.37Z"/><path class="cls-3" d="M615,325.47H568.71a2,2,0,0,0,0,3.92H615a2,2,0,1,0,0-3.92Z"/><path class="cls-3" d="M485.27,391.92a2,2,0,0,0-1.95,2v.51a2,2,0,0,0,3.91,0v-.51A2,2,0,0,0,485.27,391.92Z"/><path class="cls-3" d="M497.76,388.69a2,2,0,0,0-2,2v3.23a2,2,0,0,0,3.92,0v-3.23A2,2,0,0,0,497.76,388.69Z"/><path class="cls-3" d="M510.25,391.41a2,2,0,0,0-2,2v.51a2,2,0,0,0,3.92,0v-.51A2,2,0,0,0,510.25,391.41Z"/><path class="cls-3" d="M522.74,382.11a2,2,0,0,0-2,2v9.81a2,2,0,1,0,3.92,0v-9.81A2,2,0,0,0,522.74,382.11Z"/><path class="cls-3" d="M535.23,391.41a2,2,0,0,0-2,2v.51a2,2,0,1,0,3.92,0v-.51A2,2,0,0,0,535.23,391.41Z"/><path class="cls-3" d="M547.72,382.11a2,2,0,0,0-2,2v9.81a2,2,0,1,0,3.92,0v-9.81A2,2,0,0,0,547.72,382.11Z"/><path class="cls-3" d="M560.21,377.82a2,2,0,0,0-2,2v14.1a2,2,0,1,0,3.92,0v-14.1A2,2,0,0,0,560.21,377.82Z"/><path class="cls-3" d="M572.7,371.08a2,2,0,0,0-2,2v20.84a2,2,0,1,0,3.92,0V373A2,2,0,0,0,572.7,371.08Z"/><path class="cls-3" d="M585.19,379.86a2,2,0,0,0-2,2v12.06a2,2,0,1,0,3.92,0V381.82A2,2,0,0,0,585.19,379.86Z"/><path class="cls-3" d="M597.68,371.08a2,2,0,0,0-2,2v20.84a2,2,0,0,0,3.92,0V373A2,2,0,0,0,597.68,371.08Z"/><path class="cls-3" d="M610.17,381.8a2,2,0,0,0-2,2v10.12a2,2,0,1,0,3.91,0V383.76A2,2,0,0,0,610.17,381.8Z"/><path class="cls-3" d="M610.17,342.07H584.44a2,2,0,0,0-1.39.57l-10.49,10.5H537.05a1.94,1.94,0,0,0-1.38.57L524.9,364.49H502.42a2,2,0,0,0-1.39.57l-13.37,13.37h-5a2,2,0,1,0,0,3.92h5.76a1.94,1.94,0,0,0,1.38-.57l13.38-13.38h22.48a1.94,1.94,0,0,0,1.38-.57l10.77-10.77h35.51a2,2,0,0,0,1.38-.58l10.5-10.5h24.92a2,2,0,0,0,0-3.91Z"/><path class="cls-3" d="M151.87,323.06A15.92,15.92,0,1,0,167.79,339,15.93,15.93,0,0,0,151.87,323.06Zm0,4.54A11.38,11.38,0,1,1,140.49,339,11.39,11.39,0,0,1,151.87,327.6Z"/><path class="cls-3" d="M243.18,354.89A15.92,15.92,0,1,0,227.26,339,15.93,15.93,0,0,0,243.18,354.89Zm0-27.29A11.38,11.38,0,1,1,231.8,339,11.38,11.38,0,0,1,243.18,327.6Z"/><path class="cls-3" d="M194.56,325.84a3.57,3.57,0,0,1,5.69-.35,10.68,10.68,0,0,0,3.59,11l7.61,6.14a31.95,31.95,0,1,0,46.22-32.14l0,0a1.83,1.83,0,0,0-.3-.34l-19.74-15.7a10.62,10.62,0,0,0-6.82-2.44c-.35,0-.71,0-1.07.05a10.65,10.65,0,0,0-6.43,3.06H209.56a13.36,13.36,0,0,0-24.08,0h-14a10.65,10.65,0,0,0-6.44-3.06c-.36,0-.71-.05-1.07-.05a10.72,10.72,0,0,0-6.79,2.42L136,311.27a31.94,31.94,0,1,0,47.64,31.12l7.27-5.87a10.59,10.59,0,0,0,3.65-10.68ZM179.29,339a27.42,27.42,0,1,1-27.42-27.42A27.45,27.45,0,0,1,179.29,339Zm-27.42-32a29.76,29.76,0,0,0-3.51.22L160,298a6.12,6.12,0,0,1,3.94-1.41l.62,0a6.11,6.11,0,0,1,4.18,2.22l20.16,25.44a6.22,6.22,0,0,1-.86,8.75l-4.36,3.52A32,32,0,0,0,151.87,307Zm32.35-7.35v0a8.7,8.7,0,0,0-.11,1.27A13.43,13.43,0,1,0,211,301a8.68,8.68,0,0,0-.12-1.27v0h8.69L202.4,321.28a7.79,7.79,0,0,0-9.92.17l-17.26-21.78Zm46.56-3.11a6.21,6.21,0,0,1,4,1.43l11.57,9.21a27.48,27.48,0,0,0-3.15-.18,31.91,31.91,0,0,0-31.84,29.73L206.71,333a6.23,6.23,0,0,1-.85-8.79L226,298.84a6.13,6.13,0,0,1,4.2-2.25C230.37,296.57,230.58,296.56,230.78,296.56Zm12.4,15A27.42,27.42,0,1,1,215.76,339,27.45,27.45,0,0,1,243.18,311.55Zm-45.66-19.46a8.89,8.89,0,1,1-8.89,8.89A8.9,8.9,0,0,1,197.52,292.09Z"/><path class="cls-3" d="M194.68,132a2.3,2.3,0,0,0,1.69-.78,2,2,0,0,0,.48-1.65c-4.53-33.13,16-67.63,48.82-82a98,98,0,0,1,39.07-7.92,106.34,106.34,0,0,1,15.82,1.19A117.18,117.18,0,0,1,349.93,61c16,11.17,29.76,26,41,44.05a1.88,1.88,0,0,0,1.62.94,2.06,2.06,0,0,0,1.57-.75,2,2,0,0,0,.39-1.69c-6.35-30.43-2.86-54.87,10.37-72.62,6.78-9.11,15.82-15.84,25.46-18.95A39.58,39.58,0,0,1,442.5,10a38.9,38.9,0,0,1,17.31,4c10.75,5.29,17.86,14.33,19.5,24.82A1.61,1.61,0,0,0,481,40.35a2.28,2.28,0,0,0,1.69-.79,2,2,0,0,0,.45-1.64C480,18,459.82,6.12,442.13,6.12a40.48,40.48,0,0,0-7.34.66c-25.21,4.69-41,28.39-45.4,49.79C387,68.18,386.85,80.78,389,95,367.38,64.3,338,44,306.23,37.84a113.69,113.69,0,0,0-21.55-2.08A101.77,101.77,0,0,0,249.16,42a87.77,87.77,0,0,0-42,32.57c-11.69,17-16.68,36.86-14.06,56A1.57,1.57,0,0,0,194.68,132Z"/><path class="cls-3" d="M569.32,250.86a2,2,0,0,0-.5-1.37,2.15,2.15,0,0,0-1.59-.77,1.66,1.66,0,0,0-1.52,1,161.18,161.18,0,0,0-11.18,32.09,2.16,2.16,0,0,0,.41,1.78,1.78,1.78,0,0,0,1.39.69h.1l31.5-2a2.18,2.18,0,0,0,1.8-1.22,1.68,1.68,0,0,0-.14-1.74l-19.44-27.83A2,2,0,0,0,569.32,250.86ZM559,280.23a157.57,157.57,0,0,1,8.72-25.4l16.65,23.82Z"/><path class="cls-3" d="M459.22,471.31a2,2,0,0,0-.48.06,82.66,82.66,0,0,1-18.41,1.85c-7.87,0-16-.78-23.94-1.54s-16.05-1.53-23.91-1.53c-16.86,0-29.06,3.62-39.58,11.74a39.23,39.23,0,0,0-13.11,17.43A222.71,222.71,0,0,0,266,486h-2.22a224.73,224.73,0,0,0-36,2.95,79.94,79.94,0,0,1-12.56,1.34c-8.4,0-13.75-2.87-16.37-8.79-5.78-13.1,5.31-26.25,11.94-34.11a2,2,0,0,0,.29-2.15,2.05,2.05,0,0,0-1.78-1.24,1.71,1.71,0,0,0-1.31.66c-6.64,7.87-15.74,18.65-14.47,31.45.57,5.75,3,10.62,6.83,13.7s8.63,4.46,14.68,4.46h.69a89.67,89.67,0,0,0,12.83-1.48c1.69-.28,3.38-.55,5.07-.79,6.72-.95,13.68-1.58,20.68-1.88,3.18-.14,6.4-.21,9.57-.21a218.73,218.73,0,0,1,31.93,2.34,221.24,221.24,0,0,1,44.68,11.49,1.68,1.68,0,0,0,.55.1,2.08,2.08,0,0,0,1.88-1.46c4.46-15,19.25-23.42,31.6-26.32a80.68,80.68,0,0,1,18.69-2c7.73,0,15.63.8,23.26,1.56,4.09.41,8.32.84,12.46,1.13,4,.29,7.56.43,10.93.43a88.57,88.57,0,0,0,19.92-2.05,1.75,1.75,0,0,0,1.41-2A2,2,0,0,0,459.22,471.31Z"/><path class="cls-4" d="M56.4,249.49c7,1.46,14,3.49,20.76,5.45,13.06,3.78,26.57,7.7,40.53,7.7h0l1.53,0c11.91-.24,22.07-3.27,30.2-9a2,2,0,0,0,.75-2.3,1.89,1.89,0,0,0-1.73-1.41,1.8,1.8,0,0,0-1,.35c-8.06,5.67-17.67,8.43-29.39,8.43-8.32,0-17.75-1.44-28.82-4.4-3.51-.94-7.09-2-10.54-3-13.27-3.82-27-7.78-40.93-7.78a69.85,69.85,0,0,0-9.91.7c-11,1.59-20.4,6-27.23,12.85a1.79,1.79,0,0,0-.43,2A2.11,2.11,0,0,0,2,260.45a1.83,1.83,0,0,0,1.32-.57c8.26-8.23,19.88-12.41,34.54-12.41A91.22,91.22,0,0,1,56.4,249.49Z"/><path class="cls-4" d="M595.61,36.94l3.7,1.35-1.4,3.85,49.86,18.15,1.4-3.86L670.05,64l6.62,14.28a2.09,2.09,0,0,0-.26.45L637.69,153v12.4h3.82V153.89l35.23-67.5v79h3.82v-79l35.23,67.5v11.47h3.82V153L680.94,78.87,692,72,745.1,91.35l1.4-3.86,20,7.29,9.72-26.72-20-7.29,1.41-3.85L661.7,22l1.4-3.85L613.25,0l-1.4,3.86-3.7-1.35-.72.33c-5.21,2.43-9.61,7.72-12.09,14.51s-2.49,13.67-.06,18.88ZM687.4,70.35l-7.93,4.94-4.36-9.41ZM610.54,7.44,600.62,34.7l-2.18-.79c-1.66-4.17-1.47-9.86.49-15.26s5.48-9.87,9.43-12ZM747.8,83.91l7.12-19.55,16.42,6-7.11,19.54Zm4.93-24.71-9.92,27.26L650.47,52.85l9.93-27.26ZM658.21,20.43l-12.73,35L602.8,39.86l12.73-35Z"/><path class="cls-4" d="M123.74,293.69a2.13,2.13,0,0,0-1.94-1.35,1.92,1.92,0,0,0-1.31.53c-4.69,4.32-10.94,6.51-18.56,6.51A50.16,50.16,0,0,1,87.35,297a152.8,152.8,0,0,1-14.76-5.73c-7.43-3.18-15.11-6.47-23.32-7.76a47.55,47.55,0,0,0-7.19-.58,35.06,35.06,0,0,0-14,2.77,1.6,1.6,0,0,0-1,1.85,2.24,2.24,0,0,0,2.1,1.74,2,2,0,0,0,.83-.18,29.94,29.94,0,0,1,11.9-2.35c9.49,0,19.3,3.86,27.76,7.48l.91.39c10,4.26,20.23,8.67,31.15,8.67h0a38.79,38.79,0,0,0,4.6-.27,29.54,29.54,0,0,0,16.92-7.38A1.72,1.72,0,0,0,123.74,293.69Z"/><path class="cls-4" d="M783.36,292c-8.91,0-17.49,5.48-23,14.54-5.16,8.55-6.79,19.17-5,32.48.66,4.95,1.7,9.92,2.72,14.73,1.52,7.25,3.1,14.76,3.38,22.31.34,9.07-1.08,21.55-9.71,29.54a28.34,28.34,0,0,1-19.11,7.22c-.56,0-1.12,0-1.67,0,0-1,0-2.06,0-3.08-.23-6.93-1.45-12.33-3.73-16.52-2.39-4.4-6.13-7-10-7a8.61,8.61,0,0,0-2.24.29c-4.74,1.22-8.3,6.32-8.09,11.62.4,10,10.24,16.25,19.92,18.11-1.18,11.09-6.41,20.58-14.37,26.08a31.52,31.52,0,0,1-17.71,5.72,23.49,23.49,0,0,1-11-2.6,24.2,24.2,0,0,1-12.72-22.59,18.62,18.62,0,0,1,1.73-6.49,1.93,1.93,0,0,0-.11-1.93,2.17,2.17,0,0,0-1.77-1,1.67,1.67,0,0,0-1.53,1c-4.24,9-2.33,20.13,4.85,28.36a27.23,27.23,0,0,0,20.9,9.11,32.54,32.54,0,0,0,8.57-1.17c11.19-3.08,20.1-11.41,24.43-22.84a45.65,45.65,0,0,0,2.63-11.14l.59,0,1.34,0a31.54,31.54,0,0,0,26.22-13.47c5.81-8.51,7.77-20.3,5.84-35.07-.66-5-1.73-10.05-2.76-14.93-1.91-9.07-3.89-18.44-3.32-27.9.63-10.44,6.12-23.09,17-27.85a19.43,19.43,0,0,1,7.75-1.6,2,2,0,0,0,0-3.91ZM711.44,394.61a6.75,6.75,0,0,1,3.92-4.23,5.26,5.26,0,0,1,2-.42c3.71,0,6.52,4.36,7.79,8.09a40.65,40.65,0,0,1,1.94,14.18c-.74-.15-1.47-.33-2.18-.53-5.58-1.6-10.15-4.82-12.52-8.86A10.4,10.4,0,0,1,711.44,394.61Z"/></g></g></g></svg>