<svg xmlns="http://www.w3.org/2000/svg" viewBox="0 0 386.5 61.82"><defs><style>.cls-1{fill:#27272f;}.cls-2{fill:#e05420;}</style></defs><g id="Layer_2" data-name="Layer 2"><g id="Layer_1-2" data-name="Layer 1"><path class="cls-1" d="M36.69,22.05A17.08,17.08,0,0,0,33.33,20a9.28,9.28,0,0,0-4-.81,6.66,6.66,0,0,0-3.61.93,13.08,13.08,0,0,0-2.94,2.64L13.79,33a9.57,9.57,0,0,0-2.21,4.25V6.81a7.54,7.54,0,0,0-.68-3.44A5.65,5.65,0,0,0,9.11,1.28a6.35,6.35,0,0,0-2.47-1A14.74,14.74,0,0,0,3.92,0,25.25,25.25,0,0,0,1.37.13,7.39,7.39,0,0,0,0,.34v60H11.58V39.85a8.66,8.66,0,0,0,1.87,4.26L22.9,56.79a11.77,11.77,0,0,0,4,3.45,11.8,11.8,0,0,0,5.1,1,11.69,11.69,0,0,0,3.75-.6,11,11,0,0,0,3-1.44L22.82,38.06Z"/><path class="cls-1" d="M71.9,24.4a14.58,14.58,0,0,0-5.41-4,19.66,19.66,0,0,0-8.08-1.5,22,22,0,0,0-7.15,1.19A17.53,17.53,0,0,0,45,23.84a18.48,18.48,0,0,0-4.43,6.43,23.33,23.33,0,0,0-1.66,9.24,27.23,27.23,0,0,0,1.87,10.85,18.42,18.42,0,0,0,4.9,6.86,17.53,17.53,0,0,0,6.9,3.58,31.12,31.12,0,0,0,7.87,1,26.71,26.71,0,0,0,7.7-1,16,16,0,0,0,5.07-2.33,4.3,4.3,0,0,0,2.13-3.41,7.25,7.25,0,0,0-1.11-3.28,25.75,25.75,0,0,0-2.12-3.28L70.41,50a12.43,12.43,0,0,1-2.22,1.49,14.75,14.75,0,0,1-2.89,1.14,13.25,13.25,0,0,1-3.75.47c-3.68,0-6.38-1-8.08-3.1a13.52,13.52,0,0,1-2.9-7.8h25a8.24,8.24,0,0,0,.13-1.14q0-.73.09-1.5c0-.51,0-1,0-1.44V37a24.2,24.2,0,0,0-.94-6.81A15.59,15.59,0,0,0,71.9,24.4ZM50.49,35.85a10.21,10.21,0,0,1,2-6.77,7,7,0,0,1,5.62-2.43c2.73,0,4.61.85,5.66,2.56a12.48,12.48,0,0,1,1.58,6.64Z"/><path class="cls-1" d="M118.94,27.59a10.87,10.87,0,0,0-3.74-6.3q-2.9-2.38-8.94-2.39a16.63,16.63,0,0,0-8.09,1.67,13.54,13.54,0,0,0-4.43,3.61,4.65,4.65,0,0,0-2.52-3.45,10.8,10.8,0,0,0-4.72-1c-.62,0-1.16,0-1.62,0s-.84.07-1.18.12l-1,.17V60.37H94.34V32.78a3.81,3.81,0,0,1,2.25-3.27,10.52,10.52,0,0,1,5.4-1.33,7.59,7.59,0,0,1,3.46.64,3.9,3.9,0,0,1,1.78,1.79,7.67,7.67,0,0,1,.68,2.77c.09,1.07.13,2.24.13,3.49v23.5h11.58v-24c0-1.48,0-3-.12-4.52A26.84,26.84,0,0,0,118.94,27.59Z"/><path class="cls-1" d="M151.46,49.72c-.17.18-.45.43-.85.77a7.75,7.75,0,0,1-1.48,1,15,15,0,0,1-2,.85,6.41,6.41,0,0,1-2.25.39c-3.24,0-4.85-2-4.85-6V28.52H152V19.84H140.06v-6a7.45,7.45,0,0,0-.69-3.45,5.59,5.59,0,0,0-1.78-2.08,6.06,6.06,0,0,0-2.47-1,14,14,0,0,0-2.73-.26c-.45,0-.91,0-1.36,0s-.88.08-1.28.13l-1.27.17V46.92c0,1.25.05,2.5.17,3.74a14.63,14.63,0,0,0,.77,3.58,10.85,10.85,0,0,0,4.08,5.36c1.92,1.37,4.68,2,8.26,2a21.38,21.38,0,0,0,5-.56,15.52,15.52,0,0,0,3.92-1.45,8.68,8.68,0,0,0,2.51-2,3.35,3.35,0,0,0,.89-2.18,5.8,5.8,0,0,0-.68-2.55A29.4,29.4,0,0,0,151.46,49.72Z"/><path class="cls-1" d="M168.23,21a6.8,6.8,0,0,0-2.46-1,14.83,14.83,0,0,0-2.73-.25,25.38,25.38,0,0,0-2.55.12,8.5,8.5,0,0,0-1.37.21V54.15q0,4.26,2.09,5.66a9.49,9.49,0,0,0,5.41,1.41c.9,0,1.76,0,2.55-.08a5.35,5.35,0,0,0,1.54-.26V26.48A7.45,7.45,0,0,0,170,23,5.18,5.18,0,0,0,168.23,21Z"/><path class="cls-1" d="M202.72,38.06l13.88-16A17.44,17.44,0,0,0,213.23,20a9.28,9.28,0,0,0-4-.81,6.66,6.66,0,0,0-3.61.93,13.3,13.3,0,0,0-2.94,2.64l-9,10.31a9.57,9.57,0,0,0-2.21,4.25V6.81a7.54,7.54,0,0,0-.68-3.44A5.74,5.74,0,0,0,189,1.28a6.35,6.35,0,0,0-2.47-1A14.84,14.84,0,0,0,183.81,0a25.41,25.41,0,0,0-2.55.13,7.56,7.56,0,0,0-1.36.21v60h11.58V39.85a8.58,8.58,0,0,0,1.88,4.26l9.44,12.68a10.15,10.15,0,0,0,9.11,4.43,11.63,11.63,0,0,0,3.74-.6,11.1,11.1,0,0,0,3-1.44Z"/><path class="cls-1" d="M164.58.26A6.14,6.14,0,0,0,160.15,2a6,6,0,0,0-1.79,4.47,5.85,5.85,0,0,0,1.79,4.43,6.15,6.15,0,0,0,4.43,1.7A6.22,6.22,0,0,0,169,10.9a5.8,5.8,0,0,0,1.82-4.43A6,6,0,0,0,169,2,6.22,6.22,0,0,0,164.58.26Z"/><path class="cls-1" d="M261.56,61.05a14.78,14.78,0,0,1-4.27.34q-7.34,0-7.34-7.08V.34a11.3,11.3,0,0,1,1.54-.21A22.75,22.75,0,0,1,253.88,0q7.68,0,7.68,6.75Z"/><path class="cls-1" d="M303.81,50.63c0,4.44.66,7.72,2,9.82a16.29,16.29,0,0,1-5.64,1.11,8,8,0,0,1-4.53-1.11,5.37,5.37,0,0,1-2.13-3.5,13.48,13.48,0,0,1-5.34,3.5,20.16,20.16,0,0,1-7.13,1.2,13.51,13.51,0,0,1-9.43-3.29Q268,55.08,268,49.1q0-13.24,20.92-14.35c.91,0,2.19-.08,3.84-.08V33.13q0-3.17-1.71-4.57c-1.14-.94-3-1.41-5.72-1.41a19,19,0,0,0-5.29.77,33.67,33.67,0,0,0-6.83,3.16A11.62,11.62,0,0,1,271.28,28a7.82,7.82,0,0,1-.77-2.74c0-1.08.84-2.12,2.52-3.11a21.63,21.63,0,0,1,6.28-2.35,34.85,34.85,0,0,1,7.77-.85q8.88,0,12.8,3.67t3.93,12Zm-10.93-9.9h-1.19a9.67,9.67,0,0,0-1.2.08c-4.1.29-7.06,1-8.88,2.27a5.86,5.86,0,0,0-2.73,5.16,5.61,5.61,0,0,0,1.54,4.23A6.08,6.08,0,0,0,284.86,54a10.54,10.54,0,0,0,5.5-1.49q2.52-1.5,2.52-3Z"/><path class="cls-1" d="M323.42,22.71Q327.17,19,333.58,19q8.1,0,12.51,5.2t4.39,15.12Q350.48,50.2,346,56t-12.59,5.76a16.29,16.29,0,0,1-6.66-1.32,10.43,10.43,0,0,1-4.36-3.2q0,3.33-3.07,3.33H311.8V.34a8.71,8.71,0,0,1,1.5-.21A23.93,23.93,0,0,1,315.73,0q7.68,0,7.69,6.83Zm14.94,16.74q0-12.3-8.54-12.3a8.26,8.26,0,0,0-4.74,1.16,3.74,3.74,0,0,0-1.66,3.28V50.12a8.56,8.56,0,0,0,3,1.92,10.11,10.11,0,0,0,3.8.73,6.68,6.68,0,0,0,6.1-3.25Q338.36,46.28,338.36,39.45Z"/><path class="cls-1" d="M385.9,24.85c0,1.48-.85,3.58-2.56,6.32a20,20,0,0,0-5.46-3,17,17,0,0,0-6-1.23c-3.82,0-5.72,1.22-5.72,3.67,0,1.93,2.07,3.36,6.23,4.27a27.66,27.66,0,0,1,8.15,2.69A11.73,11.73,0,0,1,385,41.67a11.32,11.32,0,0,1,1.5,6A12.67,12.67,0,0,1,381.8,58q-4.69,3.84-12.46,3.84a26.64,26.64,0,0,1-10.68-1.88q-4-1.71-4-4.18a6.34,6.34,0,0,1,.85-3c.57-1.06,1.23-2.15,2-3.29a17.66,17.66,0,0,0,5.21,3,16.45,16.45,0,0,0,6.06,1.24c4.32,0,6.49-1.48,6.49-4.44A3.86,3.86,0,0,0,373.69,46c-1-.77-3.07-1.46-6.15-2.09q-6.66-1.37-9.73-4.4a10.7,10.7,0,0,1-3.07-8,10.78,10.78,0,0,1,4.69-9.1A19.37,19.37,0,0,1,371.21,19,27.61,27.61,0,0,1,382,20.83Q385.74,22.38,385.9,24.85Z"/><path class="cls-2" d="M236.33,34.61a7.33,7.33,0,0,0-10,0,6.83,6.83,0,0,0-2,5.08,6.63,6.63,0,0,0,2,5,7.44,7.44,0,0,0,10,0,6.56,6.56,0,0,0,2.08-5A6.75,6.75,0,0,0,236.33,34.61Z"/></g></g></svg>